G04 #@! TF.GenerationSoftware,KiCad,Pcbnew,(5.0.1-3-g963ef8bb5)*
G04 #@! TF.CreationDate,2018-11-25T11:10:40+01:00*
G04 #@! TF.ProjectId,Dimmer 2.0,44696D6D657220322E302E6B69636164,rev?*
G04 #@! TF.SameCoordinates,Original*
G04 #@! TF.FileFunction,Legend,Top*
G04 #@! TF.FilePolarity,Positive*
%FSLAX46Y46*%
G04 Gerber Fmt 4.6, Leading zero omitted, Abs format (unit mm)*
G04 Created by KiCad (PCBNEW (5.0.1-3-g963ef8bb5)) date zondag 25 november 2018 om 11:10:40*
%MOMM*%
%LPD*%
G01*
G04 APERTURE LIST*
%ADD10C,0.120000*%
%ADD11C,0.127000*%
%ADD12C,0.150000*%
G04 APERTURE END LIST*
D10*
G04 #@! TO.C,JPFlash1*
X77880000Y-53580000D02*
X77880000Y-52250000D01*
X79210000Y-53580000D02*
X77880000Y-53580000D01*
X80480000Y-53580000D02*
X80480000Y-50920000D01*
X80480000Y-50920000D02*
X83080000Y-50920000D01*
X80480000Y-53580000D02*
X83080000Y-53580000D01*
X83080000Y-53580000D02*
X83080000Y-50920000D01*
G04 #@! TO.C,R1*
X101114564Y-75660000D02*
X99910436Y-75660000D01*
X101114564Y-73840000D02*
X99910436Y-73840000D01*
G04 #@! TO.C,R2*
X101114564Y-70090000D02*
X99910436Y-70090000D01*
X101114564Y-71910000D02*
X99910436Y-71910000D01*
G04 #@! TO.C,R5*
X99910436Y-58840000D02*
X101114564Y-58840000D01*
X99910436Y-60660000D02*
X101114564Y-60660000D01*
G04 #@! TO.C,R6*
X84870000Y-115250000D02*
G75*
G03X84870000Y-115250000I-2370000J0D01*
G01*
X84870000Y-115250000D02*
X86080000Y-115250000D01*
G04 #@! TO.C,R8*
X99910436Y-62590000D02*
X101114564Y-62590000D01*
X99910436Y-64410000D02*
X101114564Y-64410000D01*
G04 #@! TO.C,R3*
X101102064Y-66340000D02*
X99897936Y-66340000D01*
X101102064Y-68160000D02*
X99897936Y-68160000D01*
G04 #@! TO.C,IC4*
X82560000Y-74420000D02*
G75*
G02X80560000Y-74420000I-1000000J0D01*
G01*
X80560000Y-74420000D02*
X78910000Y-74420000D01*
X78910000Y-74420000D02*
X78910000Y-82160000D01*
X78910000Y-82160000D02*
X84210000Y-82160000D01*
X84210000Y-82160000D02*
X84210000Y-74420000D01*
X84210000Y-74420000D02*
X82560000Y-74420000D01*
G04 #@! TO.C,Con3*
X96300000Y-42200000D02*
X95900000Y-42200000D01*
X96300000Y-42840000D02*
X96300000Y-42200000D01*
X89758000Y-46508000D02*
X90153000Y-46112000D01*
X87112000Y-49154000D02*
X87492000Y-48774000D01*
X89507000Y-46226000D02*
X89887000Y-45846000D01*
X86846000Y-48888000D02*
X87241000Y-48492000D01*
X95048000Y-46219000D02*
X95154000Y-46112000D01*
X92112000Y-49154000D02*
X92219000Y-49047000D01*
X94782000Y-45953000D02*
X94888000Y-45846000D01*
X91846000Y-48888000D02*
X91953000Y-48781000D01*
X85940000Y-51560000D02*
X85940000Y-42440000D01*
X96060000Y-51560000D02*
X96060000Y-42440000D01*
X96060000Y-42440000D02*
X85940000Y-42440000D01*
X96060000Y-51560000D02*
X85940000Y-51560000D01*
X96060000Y-44000000D02*
X85940000Y-44000000D01*
X96060000Y-42900000D02*
X85940000Y-42900000D01*
X90680000Y-47500000D02*
G75*
G03X90680000Y-47500000I-2180000J0D01*
G01*
X95680000Y-47500000D02*
G75*
G03X95680000Y-47500000I-2180000J0D01*
G01*
G04 #@! TO.C,IC2*
X103060000Y-45920000D02*
G75*
G02X101060000Y-45920000I-1000000J0D01*
G01*
X101060000Y-45920000D02*
X99410000Y-45920000D01*
X99410000Y-45920000D02*
X99410000Y-56200000D01*
X99410000Y-56200000D02*
X104710000Y-56200000D01*
X104710000Y-56200000D02*
X104710000Y-45920000D01*
X104710000Y-45920000D02*
X103060000Y-45920000D01*
G04 #@! TO.C,Reset1*
X75870000Y-53580000D02*
X75870000Y-50920000D01*
X73270000Y-53580000D02*
X75870000Y-53580000D01*
X73270000Y-50920000D02*
X75870000Y-50920000D01*
X73270000Y-53580000D02*
X73270000Y-50920000D01*
X72000000Y-53580000D02*
X70670000Y-53580000D01*
X70670000Y-53580000D02*
X70670000Y-52250000D01*
G04 #@! TO.C,IC1*
X70880000Y-73120000D02*
X70880000Y-56880000D01*
X70880000Y-56880000D02*
X78500000Y-56880000D01*
X94500000Y-56880000D02*
X95120000Y-56880000D01*
X95120000Y-56880000D02*
X95120000Y-59000000D01*
X95120000Y-71000000D02*
X95120000Y-73120000D01*
X95120000Y-73120000D02*
X94500000Y-73120000D01*
X78500000Y-73120000D02*
X70880000Y-73120000D01*
X78500000Y-73120000D02*
X78500000Y-73730000D01*
G04 #@! TO.C,T2*
X70150000Y-89470000D02*
X70150000Y-93070000D01*
X70161522Y-89431522D02*
G75*
G02X74600000Y-91270000I1838478J-1838478D01*
G01*
X70161522Y-93108478D02*
G75*
G03X74600000Y-91270000I1838478J1838478D01*
G01*
G04 #@! TO.C,Con2*
X90680000Y-124000000D02*
G75*
G03X90680000Y-124000000I-2180000J0D01*
G01*
X95680000Y-124000000D02*
G75*
G03X95680000Y-124000000I-2180000J0D01*
G01*
X85940000Y-128600000D02*
X96060000Y-128600000D01*
X85940000Y-127500000D02*
X96060000Y-127500000D01*
X85940000Y-119940000D02*
X96060000Y-119940000D01*
X85940000Y-129060000D02*
X96060000Y-129060000D01*
X85940000Y-119940000D02*
X85940000Y-129060000D01*
X96060000Y-119940000D02*
X96060000Y-129060000D01*
X90154000Y-122612000D02*
X90047000Y-122719000D01*
X87218000Y-125547000D02*
X87112000Y-125654000D01*
X89888000Y-122346000D02*
X89781000Y-122453000D01*
X86952000Y-125281000D02*
X86846000Y-125388000D01*
X95154000Y-122612000D02*
X94759000Y-123008000D01*
X92493000Y-125274000D02*
X92113000Y-125654000D01*
X94888000Y-122346000D02*
X94508000Y-122726000D01*
X92242000Y-124992000D02*
X91847000Y-125388000D01*
X85700000Y-128660000D02*
X85700000Y-129300000D01*
X85700000Y-129300000D02*
X86100000Y-129300000D01*
D11*
G04 #@! TO.C,U1*
X107500000Y-78000000D02*
X87500000Y-78000000D01*
X87500000Y-112000000D02*
X107500000Y-112000000D01*
X107500000Y-112000000D02*
X107500000Y-78000000D01*
X87500000Y-78000000D02*
X87500000Y-112000000D01*
D10*
G04 #@! TO.C,T1*
X69980000Y-88080000D02*
X69980000Y-77840000D01*
X74621000Y-88080000D02*
X74621000Y-77840000D01*
X69980000Y-88080000D02*
X74621000Y-88080000D01*
X69980000Y-77840000D02*
X74621000Y-77840000D01*
X71490000Y-88080000D02*
X71490000Y-77840000D01*
X69980000Y-84810000D02*
X71490000Y-84810000D01*
X69980000Y-81109000D02*
X71490000Y-81109000D01*
G04 #@! TO.C,K1*
X76360000Y-98516000D02*
X76360000Y-83784000D01*
X76360000Y-83784000D02*
X86520000Y-83784000D01*
X86520000Y-83784000D02*
X86520000Y-98516000D01*
X86520000Y-98516000D02*
X76360000Y-98516000D01*
X81034000Y-87340000D02*
X81669000Y-86324000D01*
X83218000Y-87467000D02*
X83218000Y-86832000D01*
X83218000Y-86832000D02*
X82558000Y-86832000D01*
X80018000Y-87467000D02*
X80018000Y-86832000D01*
X80018000Y-86832000D02*
X80653000Y-86832000D01*
X80653000Y-87340000D02*
X82558000Y-87340000D01*
X82558000Y-87340000D02*
X82558000Y-86324000D01*
X82558000Y-86324000D02*
X80653000Y-86324000D01*
X80653000Y-87340000D02*
X80653000Y-86324000D01*
D12*
G04 #@! TO.C,RV1*
X85925000Y-111250000D02*
X85925000Y-99250000D01*
X81125000Y-111250000D02*
X81125000Y-99250000D01*
X81125000Y-99250000D02*
X85925000Y-99250000D01*
X81125000Y-111250000D02*
X85925000Y-111250000D01*
D10*
G04 #@! TO.C,R10*
X93630000Y-115000000D02*
X92420000Y-115000000D01*
X98370000Y-115000000D02*
G75*
G03X98370000Y-115000000I-2370000J0D01*
G01*
G04 #@! TO.C,D1*
X94560000Y-77120000D02*
X94560000Y-74880000D01*
X94560000Y-74880000D02*
X90320000Y-74880000D01*
X90320000Y-74880000D02*
X90320000Y-77120000D01*
X90320000Y-77120000D02*
X94560000Y-77120000D01*
X95210000Y-76000000D02*
X94560000Y-76000000D01*
X89670000Y-76000000D02*
X90320000Y-76000000D01*
X93840000Y-77120000D02*
X93840000Y-74880000D01*
X93720000Y-77120000D02*
X93720000Y-74880000D01*
X93960000Y-77120000D02*
X93960000Y-74880000D01*
G04 #@! TO.C,F1*
X69950000Y-122350000D02*
X72750000Y-122350000D01*
X76750000Y-122350000D02*
X79550000Y-122350000D01*
X76750000Y-99750000D02*
X79550000Y-99750000D01*
X79550000Y-99750000D02*
X79550000Y-122350000D01*
X69950000Y-99750000D02*
X69950000Y-122350000D01*
X69950000Y-99750000D02*
X72750000Y-99750000D01*
G04 #@! TO.C,R11*
X73410436Y-76910000D02*
X74614564Y-76910000D01*
X73410436Y-75090000D02*
X74614564Y-75090000D01*
G04 #@! TO.C,R9*
X103370000Y-115000000D02*
G75*
G03X103370000Y-115000000I-2370000J0D01*
G01*
X103370000Y-115000000D02*
X104580000Y-115000000D01*
G04 #@! TO.C,Con1*
X104420000Y-74780000D02*
X107080000Y-74780000D01*
X104420000Y-62020000D02*
X104420000Y-74780000D01*
X107080000Y-62020000D02*
X107080000Y-74780000D01*
X104420000Y-62020000D02*
X107080000Y-62020000D01*
X104420000Y-60750000D02*
X104420000Y-59420000D01*
X104420000Y-59420000D02*
X105750000Y-59420000D01*
G04 #@! TO.C,IC3*
X101190000Y-124330000D02*
G75*
G02X103190000Y-124330000I1000000J0D01*
G01*
X103190000Y-124330000D02*
X104840000Y-124330000D01*
X104840000Y-124330000D02*
X104840000Y-119130000D01*
X104840000Y-119130000D02*
X99540000Y-119130000D01*
X99540000Y-119130000D02*
X99540000Y-124330000D01*
X99540000Y-124330000D02*
X101190000Y-124330000D01*
G04 #@! TO.C,JPFlash1*
D12*
X77916666Y-49202380D02*
X77916666Y-49916666D01*
X77869047Y-50059523D01*
X77773809Y-50154761D01*
X77630952Y-50202380D01*
X77535714Y-50202380D01*
X78392857Y-50202380D02*
X78392857Y-49202380D01*
X78773809Y-49202380D01*
X78869047Y-49250000D01*
X78916666Y-49297619D01*
X78964285Y-49392857D01*
X78964285Y-49535714D01*
X78916666Y-49630952D01*
X78869047Y-49678571D01*
X78773809Y-49726190D01*
X78392857Y-49726190D01*
X79726190Y-49678571D02*
X79392857Y-49678571D01*
X79392857Y-50202380D02*
X79392857Y-49202380D01*
X79869047Y-49202380D01*
X80392857Y-50202380D02*
X80297619Y-50154761D01*
X80250000Y-50059523D01*
X80250000Y-49202380D01*
X81202380Y-50202380D02*
X81202380Y-49678571D01*
X81154761Y-49583333D01*
X81059523Y-49535714D01*
X80869047Y-49535714D01*
X80773809Y-49583333D01*
X81202380Y-50154761D02*
X81107142Y-50202380D01*
X80869047Y-50202380D01*
X80773809Y-50154761D01*
X80726190Y-50059523D01*
X80726190Y-49964285D01*
X80773809Y-49869047D01*
X80869047Y-49821428D01*
X81107142Y-49821428D01*
X81202380Y-49773809D01*
X81630952Y-50154761D02*
X81726190Y-50202380D01*
X81916666Y-50202380D01*
X82011904Y-50154761D01*
X82059523Y-50059523D01*
X82059523Y-50011904D01*
X82011904Y-49916666D01*
X81916666Y-49869047D01*
X81773809Y-49869047D01*
X81678571Y-49821428D01*
X81630952Y-49726190D01*
X81630952Y-49678571D01*
X81678571Y-49583333D01*
X81773809Y-49535714D01*
X81916666Y-49535714D01*
X82011904Y-49583333D01*
X82488095Y-50202380D02*
X82488095Y-49202380D01*
X82916666Y-50202380D02*
X82916666Y-49678571D01*
X82869047Y-49583333D01*
X82773809Y-49535714D01*
X82630952Y-49535714D01*
X82535714Y-49583333D01*
X82488095Y-49630952D01*
X83916666Y-50202380D02*
X83345238Y-50202380D01*
X83630952Y-50202380D02*
X83630952Y-49202380D01*
X83535714Y-49345238D01*
X83440476Y-49440476D01*
X83345238Y-49488095D01*
G04 #@! TO.C,R1*
X100345833Y-73452380D02*
X100012500Y-72976190D01*
X99774404Y-73452380D02*
X99774404Y-72452380D01*
X100155357Y-72452380D01*
X100250595Y-72500000D01*
X100298214Y-72547619D01*
X100345833Y-72642857D01*
X100345833Y-72785714D01*
X100298214Y-72880952D01*
X100250595Y-72928571D01*
X100155357Y-72976190D01*
X99774404Y-72976190D01*
X101298214Y-73452380D02*
X100726785Y-73452380D01*
X101012500Y-73452380D02*
X101012500Y-72452380D01*
X100917261Y-72595238D01*
X100822023Y-72690476D01*
X100726785Y-72738095D01*
G04 #@! TO.C,R2*
X100333333Y-69702380D02*
X100000000Y-69226190D01*
X99761904Y-69702380D02*
X99761904Y-68702380D01*
X100142857Y-68702380D01*
X100238095Y-68750000D01*
X100285714Y-68797619D01*
X100333333Y-68892857D01*
X100333333Y-69035714D01*
X100285714Y-69130952D01*
X100238095Y-69178571D01*
X100142857Y-69226190D01*
X99761904Y-69226190D01*
X100714285Y-68797619D02*
X100761904Y-68750000D01*
X100857142Y-68702380D01*
X101095238Y-68702380D01*
X101190476Y-68750000D01*
X101238095Y-68797619D01*
X101285714Y-68892857D01*
X101285714Y-68988095D01*
X101238095Y-69130952D01*
X100666666Y-69702380D01*
X101285714Y-69702380D01*
G04 #@! TO.C,R5*
X100345833Y-58382380D02*
X100012500Y-57906190D01*
X99774404Y-58382380D02*
X99774404Y-57382380D01*
X100155357Y-57382380D01*
X100250595Y-57430000D01*
X100298214Y-57477619D01*
X100345833Y-57572857D01*
X100345833Y-57715714D01*
X100298214Y-57810952D01*
X100250595Y-57858571D01*
X100155357Y-57906190D01*
X99774404Y-57906190D01*
X101250595Y-57382380D02*
X100774404Y-57382380D01*
X100726785Y-57858571D01*
X100774404Y-57810952D01*
X100869642Y-57763333D01*
X101107738Y-57763333D01*
X101202976Y-57810952D01*
X101250595Y-57858571D01*
X101298214Y-57953809D01*
X101298214Y-58191904D01*
X101250595Y-58287142D01*
X101202976Y-58334761D01*
X101107738Y-58382380D01*
X100869642Y-58382380D01*
X100774404Y-58334761D01*
X100726785Y-58287142D01*
G04 #@! TO.C,R6*
X82333333Y-118952380D02*
X82000000Y-118476190D01*
X81761904Y-118952380D02*
X81761904Y-117952380D01*
X82142857Y-117952380D01*
X82238095Y-118000000D01*
X82285714Y-118047619D01*
X82333333Y-118142857D01*
X82333333Y-118285714D01*
X82285714Y-118380952D01*
X82238095Y-118428571D01*
X82142857Y-118476190D01*
X81761904Y-118476190D01*
X83190476Y-117952380D02*
X83000000Y-117952380D01*
X82904761Y-118000000D01*
X82857142Y-118047619D01*
X82761904Y-118190476D01*
X82714285Y-118380952D01*
X82714285Y-118761904D01*
X82761904Y-118857142D01*
X82809523Y-118904761D01*
X82904761Y-118952380D01*
X83095238Y-118952380D01*
X83190476Y-118904761D01*
X83238095Y-118857142D01*
X83285714Y-118761904D01*
X83285714Y-118523809D01*
X83238095Y-118428571D01*
X83190476Y-118380952D01*
X83095238Y-118333333D01*
X82904761Y-118333333D01*
X82809523Y-118380952D01*
X82761904Y-118428571D01*
X82714285Y-118523809D01*
G04 #@! TO.C,R8*
X100345833Y-62132380D02*
X100012500Y-61656190D01*
X99774404Y-62132380D02*
X99774404Y-61132380D01*
X100155357Y-61132380D01*
X100250595Y-61180000D01*
X100298214Y-61227619D01*
X100345833Y-61322857D01*
X100345833Y-61465714D01*
X100298214Y-61560952D01*
X100250595Y-61608571D01*
X100155357Y-61656190D01*
X99774404Y-61656190D01*
X100917261Y-61560952D02*
X100822023Y-61513333D01*
X100774404Y-61465714D01*
X100726785Y-61370476D01*
X100726785Y-61322857D01*
X100774404Y-61227619D01*
X100822023Y-61180000D01*
X100917261Y-61132380D01*
X101107738Y-61132380D01*
X101202976Y-61180000D01*
X101250595Y-61227619D01*
X101298214Y-61322857D01*
X101298214Y-61370476D01*
X101250595Y-61465714D01*
X101202976Y-61513333D01*
X101107738Y-61560952D01*
X100917261Y-61560952D01*
X100822023Y-61608571D01*
X100774404Y-61656190D01*
X100726785Y-61751428D01*
X100726785Y-61941904D01*
X100774404Y-62037142D01*
X100822023Y-62084761D01*
X100917261Y-62132380D01*
X101107738Y-62132380D01*
X101202976Y-62084761D01*
X101250595Y-62037142D01*
X101298214Y-61941904D01*
X101298214Y-61751428D01*
X101250595Y-61656190D01*
X101202976Y-61608571D01*
X101107738Y-61560952D01*
G04 #@! TO.C,R3*
X100333333Y-65952380D02*
X100000000Y-65476190D01*
X99761904Y-65952380D02*
X99761904Y-64952380D01*
X100142857Y-64952380D01*
X100238095Y-65000000D01*
X100285714Y-65047619D01*
X100333333Y-65142857D01*
X100333333Y-65285714D01*
X100285714Y-65380952D01*
X100238095Y-65428571D01*
X100142857Y-65476190D01*
X99761904Y-65476190D01*
X100666666Y-64952380D02*
X101285714Y-64952380D01*
X100952380Y-65333333D01*
X101095238Y-65333333D01*
X101190476Y-65380952D01*
X101238095Y-65428571D01*
X101285714Y-65523809D01*
X101285714Y-65761904D01*
X101238095Y-65857142D01*
X101190476Y-65904761D01*
X101095238Y-65952380D01*
X100809523Y-65952380D01*
X100714285Y-65904761D01*
X100666666Y-65857142D01*
G04 #@! TO.C,IC4*
X80523809Y-83452380D02*
X80523809Y-82452380D01*
X81571428Y-83357142D02*
X81523809Y-83404761D01*
X81380952Y-83452380D01*
X81285714Y-83452380D01*
X81142857Y-83404761D01*
X81047619Y-83309523D01*
X81000000Y-83214285D01*
X80952380Y-83023809D01*
X80952380Y-82880952D01*
X81000000Y-82690476D01*
X81047619Y-82595238D01*
X81142857Y-82500000D01*
X81285714Y-82452380D01*
X81380952Y-82452380D01*
X81523809Y-82500000D01*
X81571428Y-82547619D01*
X82428571Y-82785714D02*
X82428571Y-83452380D01*
X82190476Y-82404761D02*
X81952380Y-83119047D01*
X82571428Y-83119047D01*
G04 #@! TO.C,Con3*
X82428571Y-44107142D02*
X82380952Y-44154761D01*
X82238095Y-44202380D01*
X82142857Y-44202380D01*
X82000000Y-44154761D01*
X81904761Y-44059523D01*
X81857142Y-43964285D01*
X81809523Y-43773809D01*
X81809523Y-43630952D01*
X81857142Y-43440476D01*
X81904761Y-43345238D01*
X82000000Y-43250000D01*
X82142857Y-43202380D01*
X82238095Y-43202380D01*
X82380952Y-43250000D01*
X82428571Y-43297619D01*
X83000000Y-44202380D02*
X82904761Y-44154761D01*
X82857142Y-44107142D01*
X82809523Y-44011904D01*
X82809523Y-43726190D01*
X82857142Y-43630952D01*
X82904761Y-43583333D01*
X83000000Y-43535714D01*
X83142857Y-43535714D01*
X83238095Y-43583333D01*
X83285714Y-43630952D01*
X83333333Y-43726190D01*
X83333333Y-44011904D01*
X83285714Y-44107142D01*
X83238095Y-44154761D01*
X83142857Y-44202380D01*
X83000000Y-44202380D01*
X83761904Y-43535714D02*
X83761904Y-44202380D01*
X83761904Y-43630952D02*
X83809523Y-43583333D01*
X83904761Y-43535714D01*
X84047619Y-43535714D01*
X84142857Y-43583333D01*
X84190476Y-43678571D01*
X84190476Y-44202380D01*
X84571428Y-43202380D02*
X85190476Y-43202380D01*
X84857142Y-43583333D01*
X85000000Y-43583333D01*
X85095238Y-43630952D01*
X85142857Y-43678571D01*
X85190476Y-43773809D01*
X85190476Y-44011904D01*
X85142857Y-44107142D01*
X85095238Y-44154761D01*
X85000000Y-44202380D01*
X84714285Y-44202380D01*
X84619047Y-44154761D01*
X84571428Y-44107142D01*
G04 #@! TO.C,IC2*
X101083809Y-45702380D02*
X101083809Y-44702380D01*
X102131428Y-45607142D02*
X102083809Y-45654761D01*
X101940952Y-45702380D01*
X101845714Y-45702380D01*
X101702857Y-45654761D01*
X101607619Y-45559523D01*
X101560000Y-45464285D01*
X101512380Y-45273809D01*
X101512380Y-45130952D01*
X101560000Y-44940476D01*
X101607619Y-44845238D01*
X101702857Y-44750000D01*
X101845714Y-44702380D01*
X101940952Y-44702380D01*
X102083809Y-44750000D01*
X102131428Y-44797619D01*
X102512380Y-44797619D02*
X102560000Y-44750000D01*
X102655238Y-44702380D01*
X102893333Y-44702380D01*
X102988571Y-44750000D01*
X103036190Y-44797619D01*
X103083809Y-44892857D01*
X103083809Y-44988095D01*
X103036190Y-45130952D01*
X102464761Y-45702380D01*
X103083809Y-45702380D01*
G04 #@! TO.C,Reset1*
X70785714Y-50202380D02*
X70452380Y-49726190D01*
X70214285Y-50202380D02*
X70214285Y-49202380D01*
X70595238Y-49202380D01*
X70690476Y-49250000D01*
X70738095Y-49297619D01*
X70785714Y-49392857D01*
X70785714Y-49535714D01*
X70738095Y-49630952D01*
X70690476Y-49678571D01*
X70595238Y-49726190D01*
X70214285Y-49726190D01*
X71595238Y-50154761D02*
X71500000Y-50202380D01*
X71309523Y-50202380D01*
X71214285Y-50154761D01*
X71166666Y-50059523D01*
X71166666Y-49678571D01*
X71214285Y-49583333D01*
X71309523Y-49535714D01*
X71500000Y-49535714D01*
X71595238Y-49583333D01*
X71642857Y-49678571D01*
X71642857Y-49773809D01*
X71166666Y-49869047D01*
X72023809Y-50154761D02*
X72119047Y-50202380D01*
X72309523Y-50202380D01*
X72404761Y-50154761D01*
X72452380Y-50059523D01*
X72452380Y-50011904D01*
X72404761Y-49916666D01*
X72309523Y-49869047D01*
X72166666Y-49869047D01*
X72071428Y-49821428D01*
X72023809Y-49726190D01*
X72023809Y-49678571D01*
X72071428Y-49583333D01*
X72166666Y-49535714D01*
X72309523Y-49535714D01*
X72404761Y-49583333D01*
X73261904Y-50154761D02*
X73166666Y-50202380D01*
X72976190Y-50202380D01*
X72880952Y-50154761D01*
X72833333Y-50059523D01*
X72833333Y-49678571D01*
X72880952Y-49583333D01*
X72976190Y-49535714D01*
X73166666Y-49535714D01*
X73261904Y-49583333D01*
X73309523Y-49678571D01*
X73309523Y-49773809D01*
X72833333Y-49869047D01*
X73595238Y-49535714D02*
X73976190Y-49535714D01*
X73738095Y-49202380D02*
X73738095Y-50059523D01*
X73785714Y-50154761D01*
X73880952Y-50202380D01*
X73976190Y-50202380D01*
X74833333Y-50202380D02*
X74261904Y-50202380D01*
X74547619Y-50202380D02*
X74547619Y-49202380D01*
X74452380Y-49345238D01*
X74357142Y-49440476D01*
X74261904Y-49488095D01*
G04 #@! TO.C,IC1*
X78192380Y-76536190D02*
X77192380Y-76536190D01*
X78097142Y-75488571D02*
X78144761Y-75536190D01*
X78192380Y-75679047D01*
X78192380Y-75774285D01*
X78144761Y-75917142D01*
X78049523Y-76012380D01*
X77954285Y-76060000D01*
X77763809Y-76107619D01*
X77620952Y-76107619D01*
X77430476Y-76060000D01*
X77335238Y-76012380D01*
X77240000Y-75917142D01*
X77192380Y-75774285D01*
X77192380Y-75679047D01*
X77240000Y-75536190D01*
X77287619Y-75488571D01*
X78192380Y-74536190D02*
X78192380Y-75107619D01*
X78192380Y-74821904D02*
X77192380Y-74821904D01*
X77335238Y-74917142D01*
X77430476Y-75012380D01*
X77478095Y-75107619D01*
G04 #@! TO.C,T2*
X74952380Y-90011904D02*
X74952380Y-89440476D01*
X75952380Y-89726190D02*
X74952380Y-89726190D01*
X75047619Y-89154761D02*
X75000000Y-89107142D01*
X74952380Y-89011904D01*
X74952380Y-88773809D01*
X75000000Y-88678571D01*
X75047619Y-88630952D01*
X75142857Y-88583333D01*
X75238095Y-88583333D01*
X75380952Y-88630952D01*
X75952380Y-89202380D01*
X75952380Y-88583333D01*
G04 #@! TO.C,Con2*
X82428571Y-123357142D02*
X82380952Y-123404761D01*
X82238095Y-123452380D01*
X82142857Y-123452380D01*
X82000000Y-123404761D01*
X81904761Y-123309523D01*
X81857142Y-123214285D01*
X81809523Y-123023809D01*
X81809523Y-122880952D01*
X81857142Y-122690476D01*
X81904761Y-122595238D01*
X82000000Y-122500000D01*
X82142857Y-122452380D01*
X82238095Y-122452380D01*
X82380952Y-122500000D01*
X82428571Y-122547619D01*
X83000000Y-123452380D02*
X82904761Y-123404761D01*
X82857142Y-123357142D01*
X82809523Y-123261904D01*
X82809523Y-122976190D01*
X82857142Y-122880952D01*
X82904761Y-122833333D01*
X83000000Y-122785714D01*
X83142857Y-122785714D01*
X83238095Y-122833333D01*
X83285714Y-122880952D01*
X83333333Y-122976190D01*
X83333333Y-123261904D01*
X83285714Y-123357142D01*
X83238095Y-123404761D01*
X83142857Y-123452380D01*
X83000000Y-123452380D01*
X83761904Y-122785714D02*
X83761904Y-123452380D01*
X83761904Y-122880952D02*
X83809523Y-122833333D01*
X83904761Y-122785714D01*
X84047619Y-122785714D01*
X84142857Y-122833333D01*
X84190476Y-122928571D01*
X84190476Y-123452380D01*
X84619047Y-122547619D02*
X84666666Y-122500000D01*
X84761904Y-122452380D01*
X85000000Y-122452380D01*
X85095238Y-122500000D01*
X85142857Y-122547619D01*
X85190476Y-122642857D01*
X85190476Y-122738095D01*
X85142857Y-122880952D01*
X84571428Y-123452380D01*
X85190476Y-123452380D01*
G04 #@! TO.C,U1*
D11*
X87521428Y-112362714D02*
X87521428Y-112979571D01*
X87557714Y-113052142D01*
X87594000Y-113088428D01*
X87666571Y-113124714D01*
X87811714Y-113124714D01*
X87884285Y-113088428D01*
X87920571Y-113052142D01*
X87956857Y-112979571D01*
X87956857Y-112362714D01*
X88718857Y-113124714D02*
X88283428Y-113124714D01*
X88501142Y-113124714D02*
X88501142Y-112362714D01*
X88428571Y-112471571D01*
X88356000Y-112544142D01*
X88283428Y-112580428D01*
G04 #@! TO.C,T1*
D12*
X74952380Y-80761904D02*
X74952380Y-80190476D01*
X75952380Y-80476190D02*
X74952380Y-80476190D01*
X75952380Y-79333333D02*
X75952380Y-79904761D01*
X75952380Y-79619047D02*
X74952380Y-79619047D01*
X75095238Y-79714285D01*
X75190476Y-79809523D01*
X75238095Y-79904761D01*
G04 #@! TO.C,K1*
X74511904Y-96452380D02*
X74511904Y-95452380D01*
X75083333Y-96452380D02*
X74654761Y-95880952D01*
X75083333Y-95452380D02*
X74511904Y-96023809D01*
X76035714Y-96452380D02*
X75464285Y-96452380D01*
X75750000Y-96452380D02*
X75750000Y-95452380D01*
X75654761Y-95595238D01*
X75559523Y-95690476D01*
X75464285Y-95738095D01*
G04 #@! TO.C,RV1*
X87377380Y-105845238D02*
X86901190Y-106178571D01*
X87377380Y-106416666D02*
X86377380Y-106416666D01*
X86377380Y-106035714D01*
X86425000Y-105940476D01*
X86472619Y-105892857D01*
X86567857Y-105845238D01*
X86710714Y-105845238D01*
X86805952Y-105892857D01*
X86853571Y-105940476D01*
X86901190Y-106035714D01*
X86901190Y-106416666D01*
X86377380Y-105559523D02*
X87377380Y-105226190D01*
X86377380Y-104892857D01*
X87377380Y-104035714D02*
X87377380Y-104607142D01*
X87377380Y-104321428D02*
X86377380Y-104321428D01*
X86520238Y-104416666D01*
X86615476Y-104511904D01*
X86663095Y-104607142D01*
G04 #@! TO.C,R10*
X90357142Y-118702380D02*
X90023809Y-118226190D01*
X89785714Y-118702380D02*
X89785714Y-117702380D01*
X90166666Y-117702380D01*
X90261904Y-117750000D01*
X90309523Y-117797619D01*
X90357142Y-117892857D01*
X90357142Y-118035714D01*
X90309523Y-118130952D01*
X90261904Y-118178571D01*
X90166666Y-118226190D01*
X89785714Y-118226190D01*
X91309523Y-118702380D02*
X90738095Y-118702380D01*
X91023809Y-118702380D02*
X91023809Y-117702380D01*
X90928571Y-117845238D01*
X90833333Y-117940476D01*
X90738095Y-117988095D01*
X91928571Y-117702380D02*
X92023809Y-117702380D01*
X92119047Y-117750000D01*
X92166666Y-117797619D01*
X92214285Y-117892857D01*
X92261904Y-118083333D01*
X92261904Y-118321428D01*
X92214285Y-118511904D01*
X92166666Y-118607142D01*
X92119047Y-118654761D01*
X92023809Y-118702380D01*
X91928571Y-118702380D01*
X91833333Y-118654761D01*
X91785714Y-118607142D01*
X91738095Y-118511904D01*
X91690476Y-118321428D01*
X91690476Y-118083333D01*
X91738095Y-117892857D01*
X91785714Y-117797619D01*
X91833333Y-117750000D01*
X91928571Y-117702380D01*
G04 #@! TO.C,D1*
X91011904Y-76452380D02*
X91011904Y-75452380D01*
X91250000Y-75452380D01*
X91392857Y-75500000D01*
X91488095Y-75595238D01*
X91535714Y-75690476D01*
X91583333Y-75880952D01*
X91583333Y-76023809D01*
X91535714Y-76214285D01*
X91488095Y-76309523D01*
X91392857Y-76404761D01*
X91250000Y-76452380D01*
X91011904Y-76452380D01*
X92535714Y-76452380D02*
X91964285Y-76452380D01*
X92250000Y-76452380D02*
X92250000Y-75452380D01*
X92154761Y-75595238D01*
X92059523Y-75690476D01*
X91964285Y-75738095D01*
X97488095Y-77202380D02*
X97488095Y-76202380D01*
X98059523Y-77202380D02*
X97630952Y-76630952D01*
X98059523Y-76202380D02*
X97488095Y-76773809D01*
G04 #@! TO.C,F1*
X78928571Y-123833333D02*
X78928571Y-124166666D01*
X79452380Y-124166666D02*
X78452380Y-124166666D01*
X78452380Y-123690476D01*
X79452380Y-122785714D02*
X79452380Y-123357142D01*
X79452380Y-123071428D02*
X78452380Y-123071428D01*
X78595238Y-123166666D01*
X78690476Y-123261904D01*
X78738095Y-123357142D01*
G04 #@! TO.C,R11*
X69857142Y-76452380D02*
X69523809Y-75976190D01*
X69285714Y-76452380D02*
X69285714Y-75452380D01*
X69666666Y-75452380D01*
X69761904Y-75500000D01*
X69809523Y-75547619D01*
X69857142Y-75642857D01*
X69857142Y-75785714D01*
X69809523Y-75880952D01*
X69761904Y-75928571D01*
X69666666Y-75976190D01*
X69285714Y-75976190D01*
X70809523Y-76452380D02*
X70238095Y-76452380D01*
X70523809Y-76452380D02*
X70523809Y-75452380D01*
X70428571Y-75595238D01*
X70333333Y-75690476D01*
X70238095Y-75738095D01*
X71761904Y-76452380D02*
X71190476Y-76452380D01*
X71476190Y-76452380D02*
X71476190Y-75452380D01*
X71380952Y-75595238D01*
X71285714Y-75690476D01*
X71190476Y-75738095D01*
G04 #@! TO.C,R9*
X100833333Y-118702380D02*
X100500000Y-118226190D01*
X100261904Y-118702380D02*
X100261904Y-117702380D01*
X100642857Y-117702380D01*
X100738095Y-117750000D01*
X100785714Y-117797619D01*
X100833333Y-117892857D01*
X100833333Y-118035714D01*
X100785714Y-118130952D01*
X100738095Y-118178571D01*
X100642857Y-118226190D01*
X100261904Y-118226190D01*
X101309523Y-118702380D02*
X101500000Y-118702380D01*
X101595238Y-118654761D01*
X101642857Y-118607142D01*
X101738095Y-118464285D01*
X101785714Y-118273809D01*
X101785714Y-117892857D01*
X101738095Y-117797619D01*
X101690476Y-117750000D01*
X101595238Y-117702380D01*
X101404761Y-117702380D01*
X101309523Y-117750000D01*
X101261904Y-117797619D01*
X101214285Y-117892857D01*
X101214285Y-118130952D01*
X101261904Y-118226190D01*
X101309523Y-118273809D01*
X101404761Y-118321428D01*
X101595238Y-118321428D01*
X101690476Y-118273809D01*
X101738095Y-118226190D01*
X101785714Y-118130952D01*
G04 #@! TO.C,Con1*
X104678571Y-58777142D02*
X104630952Y-58824761D01*
X104488095Y-58872380D01*
X104392857Y-58872380D01*
X104250000Y-58824761D01*
X104154761Y-58729523D01*
X104107142Y-58634285D01*
X104059523Y-58443809D01*
X104059523Y-58300952D01*
X104107142Y-58110476D01*
X104154761Y-58015238D01*
X104250000Y-57920000D01*
X104392857Y-57872380D01*
X104488095Y-57872380D01*
X104630952Y-57920000D01*
X104678571Y-57967619D01*
X105250000Y-58872380D02*
X105154761Y-58824761D01*
X105107142Y-58777142D01*
X105059523Y-58681904D01*
X105059523Y-58396190D01*
X105107142Y-58300952D01*
X105154761Y-58253333D01*
X105250000Y-58205714D01*
X105392857Y-58205714D01*
X105488095Y-58253333D01*
X105535714Y-58300952D01*
X105583333Y-58396190D01*
X105583333Y-58681904D01*
X105535714Y-58777142D01*
X105488095Y-58824761D01*
X105392857Y-58872380D01*
X105250000Y-58872380D01*
X106011904Y-58205714D02*
X106011904Y-58872380D01*
X106011904Y-58300952D02*
X106059523Y-58253333D01*
X106154761Y-58205714D01*
X106297619Y-58205714D01*
X106392857Y-58253333D01*
X106440476Y-58348571D01*
X106440476Y-58872380D01*
X107440476Y-58872380D02*
X106869047Y-58872380D01*
X107154761Y-58872380D02*
X107154761Y-57872380D01*
X107059523Y-58015238D01*
X106964285Y-58110476D01*
X106869047Y-58158095D01*
G04 #@! TO.C,IC3*
X101213809Y-125782380D02*
X101213809Y-124782380D01*
X102261428Y-125687142D02*
X102213809Y-125734761D01*
X102070952Y-125782380D01*
X101975714Y-125782380D01*
X101832857Y-125734761D01*
X101737619Y-125639523D01*
X101690000Y-125544285D01*
X101642380Y-125353809D01*
X101642380Y-125210952D01*
X101690000Y-125020476D01*
X101737619Y-124925238D01*
X101832857Y-124830000D01*
X101975714Y-124782380D01*
X102070952Y-124782380D01*
X102213809Y-124830000D01*
X102261428Y-124877619D01*
X102594761Y-124782380D02*
X103213809Y-124782380D01*
X102880476Y-125163333D01*
X103023333Y-125163333D01*
X103118571Y-125210952D01*
X103166190Y-125258571D01*
X103213809Y-125353809D01*
X103213809Y-125591904D01*
X103166190Y-125687142D01*
X103118571Y-125734761D01*
X103023333Y-125782380D01*
X102737619Y-125782380D01*
X102642380Y-125734761D01*
X102594761Y-125687142D01*
G04 #@! TD*
M02*
