G04 #@! TF.GenerationSoftware,KiCad,Pcbnew,(5.0.1-3-g963ef8bb5)*
G04 #@! TF.CreationDate,2018-11-25T11:10:42+01:00*
G04 #@! TF.ProjectId,Dimmer 2.0,44696D6D657220322E302E6B69636164,rev?*
G04 #@! TF.SameCoordinates,Original*
G04 #@! TF.FileFunction,Soldermask,Top*
G04 #@! TF.FilePolarity,Negative*
%FSLAX46Y46*%
G04 Gerber Fmt 4.6, Leading zero omitted, Abs format (unit mm)*
G04 Created by KiCad (PCBNEW (5.0.1-3-g963ef8bb5)) date zondag 25 november 2018 om 11:10:42*
%MOMM*%
%LPD*%
G01*
G04 APERTURE LIST*
%ADD10C,0.100000*%
G04 APERTURE END LIST*
D10*
G36*
X93879196Y-122749958D02*
X94115780Y-122847954D01*
X94328705Y-122990226D01*
X94509774Y-123171295D01*
X94652046Y-123384220D01*
X94750042Y-123620804D01*
X94800000Y-123871960D01*
X94800000Y-124128040D01*
X94750042Y-124379196D01*
X94652046Y-124615780D01*
X94509774Y-124828705D01*
X94328705Y-125009774D01*
X94115780Y-125152046D01*
X93879196Y-125250042D01*
X93628040Y-125300000D01*
X93371960Y-125300000D01*
X93120804Y-125250042D01*
X92884220Y-125152046D01*
X92671295Y-125009774D01*
X92490226Y-124828705D01*
X92347954Y-124615780D01*
X92249958Y-124379196D01*
X92200000Y-124128040D01*
X92200000Y-123871960D01*
X92249958Y-123620804D01*
X92347954Y-123384220D01*
X92490226Y-123171295D01*
X92671295Y-122990226D01*
X92884220Y-122847954D01*
X93120804Y-122749958D01*
X93371960Y-122700000D01*
X93628040Y-122700000D01*
X93879196Y-122749958D01*
X93879196Y-122749958D01*
G37*
G36*
X89800000Y-125300000D02*
X87200000Y-125300000D01*
X87200000Y-122700000D01*
X89800000Y-122700000D01*
X89800000Y-125300000D01*
X89800000Y-125300000D01*
G37*
G36*
X75090935Y-120888429D02*
X75187534Y-120907644D01*
X75460517Y-121020717D01*
X75702920Y-121182687D01*
X75706197Y-121184876D01*
X75915124Y-121393803D01*
X75915126Y-121393806D01*
X76079283Y-121639483D01*
X76192356Y-121912466D01*
X76250000Y-122202263D01*
X76250000Y-122497737D01*
X76192356Y-122787534D01*
X76169309Y-122843174D01*
X76079284Y-123060515D01*
X75915124Y-123306197D01*
X75706197Y-123515124D01*
X75706194Y-123515126D01*
X75460517Y-123679283D01*
X75187534Y-123792356D01*
X75090935Y-123811571D01*
X74897739Y-123850000D01*
X74602261Y-123850000D01*
X74409065Y-123811571D01*
X74312466Y-123792356D01*
X74039483Y-123679283D01*
X73793806Y-123515126D01*
X73793803Y-123515124D01*
X73584876Y-123306197D01*
X73420716Y-123060515D01*
X73330691Y-122843174D01*
X73307644Y-122787534D01*
X73250000Y-122497737D01*
X73250000Y-122202263D01*
X73307644Y-121912466D01*
X73420717Y-121639483D01*
X73584874Y-121393806D01*
X73584876Y-121393803D01*
X73793803Y-121184876D01*
X73797080Y-121182687D01*
X74039483Y-121020717D01*
X74312466Y-120907644D01*
X74409065Y-120888429D01*
X74602261Y-120850000D01*
X74897739Y-120850000D01*
X75090935Y-120888429D01*
X75090935Y-120888429D01*
G37*
G36*
X98497649Y-122207717D02*
X98536827Y-122211576D01*
X98612228Y-122234449D01*
X98687629Y-122257321D01*
X98826608Y-122331608D01*
X98948422Y-122431578D01*
X99048392Y-122553392D01*
X99122679Y-122692371D01*
X99168424Y-122843174D01*
X99183870Y-123000000D01*
X99168424Y-123156826D01*
X99122679Y-123307629D01*
X99048392Y-123446608D01*
X98948422Y-123568422D01*
X98826608Y-123668392D01*
X98687629Y-123742679D01*
X98612227Y-123765552D01*
X98536827Y-123788424D01*
X98497649Y-123792283D01*
X98419295Y-123800000D01*
X98340705Y-123800000D01*
X98262351Y-123792283D01*
X98223173Y-123788424D01*
X98147773Y-123765552D01*
X98072371Y-123742679D01*
X97933392Y-123668392D01*
X97811578Y-123568422D01*
X97711608Y-123446608D01*
X97637321Y-123307629D01*
X97591576Y-123156826D01*
X97576130Y-123000000D01*
X97591576Y-122843174D01*
X97637321Y-122692371D01*
X97711608Y-122553392D01*
X97811578Y-122431578D01*
X97933392Y-122331608D01*
X98072371Y-122257321D01*
X98147772Y-122234449D01*
X98223173Y-122211576D01*
X98262351Y-122207717D01*
X98340705Y-122200000D01*
X98419295Y-122200000D01*
X98497649Y-122207717D01*
X98497649Y-122207717D01*
G37*
G36*
X106800000Y-123800000D02*
X105200000Y-123800000D01*
X105200000Y-122200000D01*
X106800000Y-122200000D01*
X106800000Y-123800000D01*
X106800000Y-123800000D01*
G37*
G36*
X98497649Y-119667717D02*
X98536827Y-119671576D01*
X98612228Y-119694449D01*
X98687629Y-119717321D01*
X98826608Y-119791608D01*
X98948422Y-119891578D01*
X99048392Y-120013392D01*
X99122679Y-120152371D01*
X99168424Y-120303174D01*
X99183870Y-120460000D01*
X99168424Y-120616826D01*
X99122679Y-120767629D01*
X99048392Y-120906608D01*
X98948422Y-121028422D01*
X98826608Y-121128392D01*
X98687629Y-121202679D01*
X98612228Y-121225551D01*
X98536827Y-121248424D01*
X98497649Y-121252283D01*
X98419295Y-121260000D01*
X98340705Y-121260000D01*
X98262351Y-121252283D01*
X98223173Y-121248424D01*
X98147772Y-121225551D01*
X98072371Y-121202679D01*
X97933392Y-121128392D01*
X97811578Y-121028422D01*
X97711608Y-120906608D01*
X97637321Y-120767629D01*
X97591576Y-120616826D01*
X97576130Y-120460000D01*
X97591576Y-120303174D01*
X97637321Y-120152371D01*
X97711608Y-120013392D01*
X97811578Y-119891578D01*
X97933392Y-119791608D01*
X98072371Y-119717321D01*
X98147772Y-119694449D01*
X98223173Y-119671576D01*
X98262351Y-119667717D01*
X98340705Y-119660000D01*
X98419295Y-119660000D01*
X98497649Y-119667717D01*
X98497649Y-119667717D01*
G37*
G36*
X106117649Y-119667717D02*
X106156827Y-119671576D01*
X106232228Y-119694449D01*
X106307629Y-119717321D01*
X106446608Y-119791608D01*
X106568422Y-119891578D01*
X106668392Y-120013392D01*
X106742679Y-120152371D01*
X106788424Y-120303174D01*
X106803870Y-120460000D01*
X106788424Y-120616826D01*
X106742679Y-120767629D01*
X106668392Y-120906608D01*
X106568422Y-121028422D01*
X106446608Y-121128392D01*
X106307629Y-121202679D01*
X106232228Y-121225551D01*
X106156827Y-121248424D01*
X106117649Y-121252283D01*
X106039295Y-121260000D01*
X105960705Y-121260000D01*
X105882351Y-121252283D01*
X105843173Y-121248424D01*
X105767772Y-121225551D01*
X105692371Y-121202679D01*
X105553392Y-121128392D01*
X105431578Y-121028422D01*
X105331608Y-120906608D01*
X105257321Y-120767629D01*
X105211576Y-120616826D01*
X105196130Y-120460000D01*
X105211576Y-120303174D01*
X105257321Y-120152371D01*
X105331608Y-120013392D01*
X105431578Y-119891578D01*
X105553392Y-119791608D01*
X105692371Y-119717321D01*
X105767772Y-119694449D01*
X105843173Y-119671576D01*
X105882351Y-119667717D01*
X105960705Y-119660000D01*
X106039295Y-119660000D01*
X106117649Y-119667717D01*
X106117649Y-119667717D01*
G37*
G36*
X87674208Y-114053473D02*
X87815241Y-114067363D01*
X88041442Y-114135981D01*
X88041444Y-114135982D01*
X88041447Y-114135983D01*
X88249910Y-114247408D01*
X88432634Y-114397366D01*
X88582592Y-114580090D01*
X88694017Y-114788553D01*
X88694018Y-114788556D01*
X88694019Y-114788558D01*
X88762637Y-115014759D01*
X88785806Y-115250000D01*
X88762637Y-115485241D01*
X88694019Y-115711442D01*
X88694017Y-115711447D01*
X88582592Y-115919910D01*
X88432634Y-116102634D01*
X88249910Y-116252592D01*
X88041447Y-116364017D01*
X88041444Y-116364018D01*
X88041442Y-116364019D01*
X87815241Y-116432637D01*
X87674208Y-116446527D01*
X87638951Y-116450000D01*
X87521049Y-116450000D01*
X87485792Y-116446527D01*
X87344759Y-116432637D01*
X87118558Y-116364019D01*
X87118556Y-116364018D01*
X87118553Y-116364017D01*
X86910090Y-116252592D01*
X86727366Y-116102634D01*
X86577408Y-115919910D01*
X86465983Y-115711447D01*
X86465981Y-115711442D01*
X86397363Y-115485241D01*
X86374194Y-115250000D01*
X86397363Y-115014759D01*
X86465981Y-114788558D01*
X86465982Y-114788556D01*
X86465983Y-114788553D01*
X86577408Y-114580090D01*
X86727366Y-114397366D01*
X86910090Y-114247408D01*
X87118553Y-114135983D01*
X87118556Y-114135982D01*
X87118558Y-114135981D01*
X87344759Y-114067363D01*
X87485792Y-114053473D01*
X87521049Y-114050000D01*
X87638951Y-114050000D01*
X87674208Y-114053473D01*
X87674208Y-114053473D01*
G37*
G36*
X82850026Y-114096115D02*
X83068412Y-114186573D01*
X83264958Y-114317901D01*
X83432099Y-114485042D01*
X83563427Y-114681588D01*
X83653885Y-114899974D01*
X83700000Y-115131809D01*
X83700000Y-115368191D01*
X83653885Y-115600026D01*
X83563427Y-115818412D01*
X83432099Y-116014958D01*
X83264958Y-116182099D01*
X83068412Y-116313427D01*
X82850026Y-116403885D01*
X82618191Y-116450000D01*
X82381809Y-116450000D01*
X82149974Y-116403885D01*
X81931588Y-116313427D01*
X81735042Y-116182099D01*
X81567901Y-116014958D01*
X81436573Y-115818412D01*
X81346115Y-115600026D01*
X81300000Y-115368191D01*
X81300000Y-115131809D01*
X81346115Y-114899974D01*
X81436573Y-114681588D01*
X81567901Y-114485042D01*
X81735042Y-114317901D01*
X81931588Y-114186573D01*
X82149974Y-114096115D01*
X82381809Y-114050000D01*
X82618191Y-114050000D01*
X82850026Y-114096115D01*
X82850026Y-114096115D01*
G37*
G36*
X106174208Y-113803473D02*
X106315241Y-113817363D01*
X106541442Y-113885981D01*
X106541444Y-113885982D01*
X106541447Y-113885983D01*
X106749910Y-113997408D01*
X106932634Y-114147366D01*
X107082592Y-114330090D01*
X107194017Y-114538553D01*
X107194018Y-114538556D01*
X107194019Y-114538558D01*
X107262637Y-114764759D01*
X107285806Y-115000000D01*
X107262637Y-115235241D01*
X107194019Y-115461442D01*
X107194017Y-115461447D01*
X107082592Y-115669910D01*
X106932634Y-115852634D01*
X106749910Y-116002592D01*
X106541447Y-116114017D01*
X106541444Y-116114018D01*
X106541442Y-116114019D01*
X106315241Y-116182637D01*
X106174208Y-116196527D01*
X106138951Y-116200000D01*
X106021049Y-116200000D01*
X105985792Y-116196527D01*
X105844759Y-116182637D01*
X105618558Y-116114019D01*
X105618556Y-116114018D01*
X105618553Y-116114017D01*
X105410090Y-116002592D01*
X105227366Y-115852634D01*
X105077408Y-115669910D01*
X104965983Y-115461447D01*
X104965981Y-115461442D01*
X104897363Y-115235241D01*
X104874194Y-115000000D01*
X104897363Y-114764759D01*
X104965981Y-114538558D01*
X104965982Y-114538556D01*
X104965983Y-114538553D01*
X105077408Y-114330090D01*
X105227366Y-114147366D01*
X105410090Y-113997408D01*
X105618553Y-113885983D01*
X105618556Y-113885982D01*
X105618558Y-113885981D01*
X105844759Y-113817363D01*
X105985792Y-113803473D01*
X106021049Y-113800000D01*
X106138951Y-113800000D01*
X106174208Y-113803473D01*
X106174208Y-113803473D01*
G37*
G36*
X91014208Y-113803473D02*
X91155241Y-113817363D01*
X91381442Y-113885981D01*
X91381444Y-113885982D01*
X91381447Y-113885983D01*
X91589910Y-113997408D01*
X91772634Y-114147366D01*
X91922592Y-114330090D01*
X92034017Y-114538553D01*
X92034018Y-114538556D01*
X92034019Y-114538558D01*
X92102637Y-114764759D01*
X92125806Y-115000000D01*
X92102637Y-115235241D01*
X92034019Y-115461442D01*
X92034017Y-115461447D01*
X91922592Y-115669910D01*
X91772634Y-115852634D01*
X91589910Y-116002592D01*
X91381447Y-116114017D01*
X91381444Y-116114018D01*
X91381442Y-116114019D01*
X91155241Y-116182637D01*
X91014208Y-116196527D01*
X90978951Y-116200000D01*
X90861049Y-116200000D01*
X90825792Y-116196527D01*
X90684759Y-116182637D01*
X90458558Y-116114019D01*
X90458556Y-116114018D01*
X90458553Y-116114017D01*
X90250090Y-116002592D01*
X90067366Y-115852634D01*
X89917408Y-115669910D01*
X89805983Y-115461447D01*
X89805981Y-115461442D01*
X89737363Y-115235241D01*
X89714194Y-115000000D01*
X89737363Y-114764759D01*
X89805981Y-114538558D01*
X89805982Y-114538556D01*
X89805983Y-114538553D01*
X89917408Y-114330090D01*
X90067366Y-114147366D01*
X90250090Y-113997408D01*
X90458553Y-113885983D01*
X90458556Y-113885982D01*
X90458558Y-113885981D01*
X90684759Y-113817363D01*
X90825792Y-113803473D01*
X90861049Y-113800000D01*
X90978951Y-113800000D01*
X91014208Y-113803473D01*
X91014208Y-113803473D01*
G37*
G36*
X96350026Y-113846115D02*
X96568412Y-113936573D01*
X96764958Y-114067901D01*
X96932099Y-114235042D01*
X97063427Y-114431588D01*
X97153885Y-114649974D01*
X97200000Y-114881809D01*
X97200000Y-115118191D01*
X97153885Y-115350026D01*
X97063427Y-115568412D01*
X96932099Y-115764958D01*
X96764958Y-115932099D01*
X96568412Y-116063427D01*
X96350026Y-116153885D01*
X96118191Y-116200000D01*
X95881809Y-116200000D01*
X95649974Y-116153885D01*
X95431588Y-116063427D01*
X95235042Y-115932099D01*
X95067901Y-115764958D01*
X94936573Y-115568412D01*
X94846115Y-115350026D01*
X94800000Y-115118191D01*
X94800000Y-114881809D01*
X94846115Y-114649974D01*
X94936573Y-114431588D01*
X95067901Y-114235042D01*
X95235042Y-114067901D01*
X95431588Y-113936573D01*
X95649974Y-113846115D01*
X95881809Y-113800000D01*
X96118191Y-113800000D01*
X96350026Y-113846115D01*
X96350026Y-113846115D01*
G37*
G36*
X101350026Y-113846115D02*
X101568412Y-113936573D01*
X101764958Y-114067901D01*
X101932099Y-114235042D01*
X102063427Y-114431588D01*
X102153885Y-114649974D01*
X102200000Y-114881809D01*
X102200000Y-115118191D01*
X102153885Y-115350026D01*
X102063427Y-115568412D01*
X101932099Y-115764958D01*
X101764958Y-115932099D01*
X101568412Y-116063427D01*
X101350026Y-116153885D01*
X101118191Y-116200000D01*
X100881809Y-116200000D01*
X100649974Y-116153885D01*
X100431588Y-116063427D01*
X100235042Y-115932099D01*
X100067901Y-115764958D01*
X99936573Y-115568412D01*
X99846115Y-115350026D01*
X99800000Y-115118191D01*
X99800000Y-114881809D01*
X99846115Y-114649974D01*
X99936573Y-114431588D01*
X100067901Y-114235042D01*
X100235042Y-114067901D01*
X100431588Y-113936573D01*
X100649974Y-113846115D01*
X100881809Y-113800000D01*
X101118191Y-113800000D01*
X101350026Y-113846115D01*
X101350026Y-113846115D01*
G37*
G36*
X95320857Y-108642272D02*
X95521042Y-108725191D01*
X95701213Y-108845578D01*
X95854422Y-108998787D01*
X95854424Y-108998790D01*
X95854425Y-108998791D01*
X95914463Y-109088644D01*
X95974809Y-109178958D01*
X96057728Y-109379143D01*
X96100000Y-109591658D01*
X96100000Y-109808342D01*
X96057728Y-110020857D01*
X95974809Y-110221042D01*
X95854422Y-110401213D01*
X95701213Y-110554422D01*
X95521042Y-110674809D01*
X95320857Y-110757728D01*
X95108342Y-110800000D01*
X94891658Y-110800000D01*
X94679143Y-110757728D01*
X94478958Y-110674809D01*
X94298787Y-110554422D01*
X94145578Y-110401213D01*
X94025191Y-110221042D01*
X93942272Y-110020857D01*
X93900000Y-109808342D01*
X93900000Y-109591658D01*
X93942272Y-109379143D01*
X94025191Y-109178958D01*
X94085537Y-109088644D01*
X94145575Y-108998791D01*
X94145576Y-108998790D01*
X94145578Y-108998787D01*
X94298787Y-108845578D01*
X94478958Y-108725191D01*
X94679143Y-108642272D01*
X94891658Y-108600000D01*
X95108342Y-108600000D01*
X95320857Y-108642272D01*
X95320857Y-108642272D01*
G37*
G36*
X100320857Y-108642272D02*
X100521042Y-108725191D01*
X100701213Y-108845578D01*
X100854422Y-108998787D01*
X100854424Y-108998790D01*
X100854425Y-108998791D01*
X100914463Y-109088644D01*
X100974809Y-109178958D01*
X101057728Y-109379143D01*
X101100000Y-109591658D01*
X101100000Y-109808342D01*
X101057728Y-110020857D01*
X100974809Y-110221042D01*
X100854422Y-110401213D01*
X100701213Y-110554422D01*
X100521042Y-110674809D01*
X100320857Y-110757728D01*
X100108342Y-110800000D01*
X99891658Y-110800000D01*
X99679143Y-110757728D01*
X99478958Y-110674809D01*
X99298787Y-110554422D01*
X99145578Y-110401213D01*
X99025191Y-110221042D01*
X98942272Y-110020857D01*
X98900000Y-109808342D01*
X98900000Y-109591658D01*
X98942272Y-109379143D01*
X99025191Y-109178958D01*
X99085537Y-109088644D01*
X99145575Y-108998791D01*
X99145576Y-108998790D01*
X99145578Y-108998787D01*
X99298787Y-108845578D01*
X99478958Y-108725191D01*
X99679143Y-108642272D01*
X99891658Y-108600000D01*
X100108342Y-108600000D01*
X100320857Y-108642272D01*
X100320857Y-108642272D01*
G37*
G36*
X82762521Y-108134586D02*
X82926309Y-108202429D01*
X83073720Y-108300926D01*
X83199074Y-108426280D01*
X83297571Y-108573691D01*
X83365414Y-108737479D01*
X83400000Y-108911356D01*
X83400000Y-109088644D01*
X83365414Y-109262521D01*
X83297571Y-109426309D01*
X83199074Y-109573720D01*
X83073720Y-109699074D01*
X82926309Y-109797571D01*
X82762521Y-109865414D01*
X82588644Y-109900000D01*
X82411356Y-109900000D01*
X82237479Y-109865414D01*
X82073691Y-109797571D01*
X81926280Y-109699074D01*
X81800926Y-109573720D01*
X81702429Y-109426309D01*
X81634586Y-109262521D01*
X81600000Y-109088644D01*
X81600000Y-108911356D01*
X81634586Y-108737479D01*
X81702429Y-108573691D01*
X81800926Y-108426280D01*
X81926280Y-108300926D01*
X82073691Y-108202429D01*
X82237479Y-108134586D01*
X82411356Y-108100000D01*
X82588644Y-108100000D01*
X82762521Y-108134586D01*
X82762521Y-108134586D01*
G37*
G36*
X84812521Y-100634586D02*
X84976309Y-100702429D01*
X85123720Y-100800926D01*
X85249074Y-100926280D01*
X85347571Y-101073691D01*
X85415414Y-101237479D01*
X85450000Y-101411356D01*
X85450000Y-101588644D01*
X85415414Y-101762521D01*
X85347571Y-101926309D01*
X85249074Y-102073720D01*
X85123720Y-102199074D01*
X84976309Y-102297571D01*
X84812521Y-102365414D01*
X84638644Y-102400000D01*
X84461356Y-102400000D01*
X84287479Y-102365414D01*
X84123691Y-102297571D01*
X83976280Y-102199074D01*
X83850926Y-102073720D01*
X83752429Y-101926309D01*
X83684586Y-101762521D01*
X83650000Y-101588644D01*
X83650000Y-101411356D01*
X83684586Y-101237479D01*
X83752429Y-101073691D01*
X83850926Y-100926280D01*
X83976280Y-100800926D01*
X84123691Y-100702429D01*
X84287479Y-100634586D01*
X84461356Y-100600000D01*
X84638644Y-100600000D01*
X84812521Y-100634586D01*
X84812521Y-100634586D01*
G37*
G36*
X75090908Y-98288424D02*
X75187534Y-98307644D01*
X75460517Y-98420717D01*
X75702920Y-98582687D01*
X75706197Y-98584876D01*
X75915124Y-98793803D01*
X76079284Y-99039485D01*
X76192356Y-99312467D01*
X76250000Y-99602261D01*
X76250000Y-99897739D01*
X76192356Y-100187533D01*
X76079284Y-100460515D01*
X75915124Y-100706197D01*
X75706197Y-100915124D01*
X75706194Y-100915126D01*
X75460517Y-101079283D01*
X75187534Y-101192356D01*
X75090935Y-101211571D01*
X74897739Y-101250000D01*
X74602261Y-101250000D01*
X74409065Y-101211571D01*
X74312466Y-101192356D01*
X74039483Y-101079283D01*
X73793806Y-100915126D01*
X73793803Y-100915124D01*
X73584876Y-100706197D01*
X73420716Y-100460515D01*
X73307644Y-100187533D01*
X73250000Y-99897739D01*
X73250000Y-99602261D01*
X73307644Y-99312467D01*
X73420716Y-99039485D01*
X73584876Y-98793803D01*
X73793803Y-98584876D01*
X73797080Y-98582687D01*
X74039483Y-98420717D01*
X74312466Y-98307644D01*
X74409092Y-98288424D01*
X74602261Y-98250000D01*
X74897739Y-98250000D01*
X75090908Y-98288424D01*
X75090908Y-98288424D01*
G37*
G36*
X78097649Y-96707717D02*
X78136827Y-96711576D01*
X78212228Y-96734449D01*
X78287629Y-96757321D01*
X78426608Y-96831608D01*
X78548422Y-96931578D01*
X78648392Y-97053392D01*
X78722679Y-97192371D01*
X78768424Y-97343174D01*
X78783870Y-97500000D01*
X78768424Y-97656826D01*
X78722679Y-97807629D01*
X78648392Y-97946608D01*
X78548422Y-98068422D01*
X78426608Y-98168392D01*
X78287629Y-98242679D01*
X78212227Y-98265552D01*
X78136827Y-98288424D01*
X78097649Y-98292283D01*
X78019295Y-98300000D01*
X77240705Y-98300000D01*
X77162351Y-98292283D01*
X77123173Y-98288424D01*
X77047773Y-98265552D01*
X76972371Y-98242679D01*
X76833392Y-98168392D01*
X76711578Y-98068422D01*
X76611608Y-97946608D01*
X76537321Y-97807629D01*
X76491576Y-97656826D01*
X76476130Y-97500000D01*
X76491576Y-97343174D01*
X76537321Y-97192371D01*
X76611608Y-97053392D01*
X76711578Y-96931578D01*
X76833392Y-96831608D01*
X76972371Y-96757321D01*
X77047772Y-96734449D01*
X77123173Y-96711576D01*
X77162351Y-96707717D01*
X77240705Y-96700000D01*
X78019295Y-96700000D01*
X78097649Y-96707717D01*
X78097649Y-96707717D01*
G37*
G36*
X85717649Y-96707717D02*
X85756827Y-96711576D01*
X85832228Y-96734449D01*
X85907629Y-96757321D01*
X86046608Y-96831608D01*
X86168422Y-96931578D01*
X86268392Y-97053392D01*
X86342679Y-97192371D01*
X86388424Y-97343174D01*
X86403870Y-97500000D01*
X86388424Y-97656826D01*
X86342679Y-97807629D01*
X86268392Y-97946608D01*
X86168422Y-98068422D01*
X86046608Y-98168392D01*
X85907629Y-98242679D01*
X85832227Y-98265552D01*
X85756827Y-98288424D01*
X85717649Y-98292283D01*
X85639295Y-98300000D01*
X84860705Y-98300000D01*
X84782351Y-98292283D01*
X84743173Y-98288424D01*
X84667773Y-98265552D01*
X84592371Y-98242679D01*
X84453392Y-98168392D01*
X84331578Y-98068422D01*
X84231608Y-97946608D01*
X84157321Y-97807629D01*
X84111576Y-97656826D01*
X84096130Y-97500000D01*
X84111576Y-97343174D01*
X84157321Y-97192371D01*
X84231608Y-97053392D01*
X84331578Y-96931578D01*
X84453392Y-96831608D01*
X84592371Y-96757321D01*
X84667772Y-96734449D01*
X84743173Y-96711576D01*
X84782351Y-96707717D01*
X84860705Y-96700000D01*
X85639295Y-96700000D01*
X85717649Y-96707717D01*
X85717649Y-96707717D01*
G37*
G36*
X72750000Y-90525000D02*
X72420314Y-90525000D01*
X72395928Y-90527402D01*
X72372479Y-90534515D01*
X72350868Y-90546066D01*
X72331926Y-90561612D01*
X72316380Y-90580554D01*
X72304829Y-90602165D01*
X72297716Y-90625614D01*
X72295314Y-90650000D01*
X72297716Y-90674386D01*
X72304829Y-90697835D01*
X72316380Y-90719446D01*
X72331926Y-90738388D01*
X72350868Y-90753934D01*
X72372479Y-90765485D01*
X72384029Y-90769618D01*
X72426882Y-90782617D01*
X72475632Y-90808675D01*
X72518086Y-90831367D01*
X72518088Y-90831368D01*
X72518087Y-90831368D01*
X72598027Y-90896973D01*
X72663632Y-90976913D01*
X72712382Y-91068117D01*
X72742404Y-91167086D01*
X72752540Y-91270000D01*
X72742404Y-91372914D01*
X72742403Y-91372917D01*
X72742403Y-91372918D01*
X72712383Y-91471881D01*
X72663633Y-91563086D01*
X72598027Y-91643027D01*
X72518086Y-91708633D01*
X72426881Y-91757383D01*
X72334580Y-91785382D01*
X72311941Y-91794760D01*
X72291567Y-91808374D01*
X72274240Y-91825701D01*
X72260626Y-91846075D01*
X72251248Y-91868714D01*
X72246468Y-91892748D01*
X72246468Y-91917252D01*
X72251248Y-91941286D01*
X72260626Y-91963925D01*
X72274240Y-91984299D01*
X72291567Y-92001626D01*
X72311941Y-92015240D01*
X72334579Y-92024618D01*
X72426881Y-92052617D01*
X72518086Y-92101367D01*
X72518088Y-92101368D01*
X72518087Y-92101368D01*
X72598027Y-92166973D01*
X72663632Y-92246913D01*
X72712382Y-92338117D01*
X72742404Y-92437086D01*
X72752540Y-92540000D01*
X72742404Y-92642914D01*
X72742403Y-92642917D01*
X72742403Y-92642918D01*
X72712383Y-92741881D01*
X72663633Y-92833086D01*
X72598027Y-92913027D01*
X72518086Y-92978633D01*
X72426881Y-93027383D01*
X72327918Y-93057403D01*
X72327917Y-93057403D01*
X72327914Y-93057404D01*
X72250792Y-93065000D01*
X71749208Y-93065000D01*
X71672086Y-93057404D01*
X71672083Y-93057403D01*
X71672082Y-93057403D01*
X71573119Y-93027383D01*
X71481914Y-92978633D01*
X71401973Y-92913027D01*
X71336367Y-92833086D01*
X71287617Y-92741881D01*
X71257597Y-92642918D01*
X71257597Y-92642917D01*
X71257596Y-92642914D01*
X71247460Y-92540000D01*
X71257596Y-92437086D01*
X71287618Y-92338117D01*
X71336368Y-92246913D01*
X71401973Y-92166973D01*
X71481913Y-92101368D01*
X71481912Y-92101368D01*
X71481914Y-92101367D01*
X71573119Y-92052617D01*
X71665421Y-92024618D01*
X71688059Y-92015240D01*
X71708433Y-92001626D01*
X71725760Y-91984299D01*
X71739374Y-91963925D01*
X71748752Y-91941286D01*
X71753532Y-91917252D01*
X71753532Y-91892748D01*
X71748752Y-91868714D01*
X71739374Y-91846075D01*
X71725760Y-91825701D01*
X71708433Y-91808374D01*
X71688059Y-91794760D01*
X71665420Y-91785382D01*
X71573119Y-91757383D01*
X71481914Y-91708633D01*
X71401973Y-91643027D01*
X71336367Y-91563086D01*
X71287617Y-91471881D01*
X71257597Y-91372918D01*
X71257597Y-91372917D01*
X71257596Y-91372914D01*
X71247460Y-91270000D01*
X71257596Y-91167086D01*
X71287618Y-91068117D01*
X71336368Y-90976913D01*
X71401973Y-90896973D01*
X71481913Y-90831368D01*
X71481912Y-90831368D01*
X71481914Y-90831367D01*
X71524368Y-90808675D01*
X71573118Y-90782617D01*
X71615971Y-90769618D01*
X71638611Y-90760240D01*
X71658985Y-90746626D01*
X71676312Y-90729299D01*
X71689926Y-90708925D01*
X71699304Y-90686286D01*
X71704084Y-90662252D01*
X71704084Y-90637748D01*
X71699304Y-90613715D01*
X71689926Y-90591075D01*
X71676312Y-90570701D01*
X71658985Y-90553374D01*
X71638611Y-90539760D01*
X71615972Y-90530382D01*
X71591938Y-90525602D01*
X71579686Y-90525000D01*
X71250000Y-90525000D01*
X71250000Y-89475000D01*
X72750000Y-89475000D01*
X72750000Y-90525000D01*
X72750000Y-90525000D01*
G37*
G36*
X78097649Y-86547717D02*
X78136827Y-86551576D01*
X78212228Y-86574449D01*
X78287629Y-86597321D01*
X78426608Y-86671608D01*
X78548422Y-86771578D01*
X78648392Y-86893392D01*
X78722679Y-87032371D01*
X78768424Y-87183174D01*
X78783870Y-87340000D01*
X78768424Y-87496826D01*
X78722679Y-87647629D01*
X78648392Y-87786608D01*
X78548422Y-87908422D01*
X78426608Y-88008392D01*
X78287629Y-88082679D01*
X78212227Y-88105552D01*
X78136827Y-88128424D01*
X78097649Y-88132283D01*
X78019295Y-88140000D01*
X77240705Y-88140000D01*
X77162351Y-88132283D01*
X77123173Y-88128424D01*
X77047773Y-88105552D01*
X76972371Y-88082679D01*
X76833392Y-88008392D01*
X76711578Y-87908422D01*
X76611608Y-87786608D01*
X76537321Y-87647629D01*
X76491576Y-87496826D01*
X76476130Y-87340000D01*
X76491576Y-87183174D01*
X76537321Y-87032371D01*
X76611608Y-86893392D01*
X76711578Y-86771578D01*
X76833392Y-86671608D01*
X76972371Y-86597321D01*
X77047772Y-86574449D01*
X77123173Y-86551576D01*
X77162351Y-86547717D01*
X77240705Y-86540000D01*
X78019295Y-86540000D01*
X78097649Y-86547717D01*
X78097649Y-86547717D01*
G37*
G36*
X85717649Y-86547717D02*
X85756827Y-86551576D01*
X85832228Y-86574449D01*
X85907629Y-86597321D01*
X86046608Y-86671608D01*
X86168422Y-86771578D01*
X86268392Y-86893392D01*
X86342679Y-87032371D01*
X86388424Y-87183174D01*
X86403870Y-87340000D01*
X86388424Y-87496826D01*
X86342679Y-87647629D01*
X86268392Y-87786608D01*
X86168422Y-87908422D01*
X86046608Y-88008392D01*
X85907629Y-88082679D01*
X85832227Y-88105552D01*
X85756827Y-88128424D01*
X85717649Y-88132283D01*
X85639295Y-88140000D01*
X84860705Y-88140000D01*
X84782351Y-88132283D01*
X84743173Y-88128424D01*
X84667773Y-88105552D01*
X84592371Y-88082679D01*
X84453392Y-88008392D01*
X84331578Y-87908422D01*
X84231608Y-87786608D01*
X84157321Y-87647629D01*
X84111576Y-87496826D01*
X84096130Y-87340000D01*
X84111576Y-87183174D01*
X84157321Y-87032371D01*
X84231608Y-86893392D01*
X84331578Y-86771578D01*
X84453392Y-86671608D01*
X84592371Y-86597321D01*
X84667772Y-86574449D01*
X84743173Y-86551576D01*
X84782351Y-86547717D01*
X84860705Y-86540000D01*
X85639295Y-86540000D01*
X85717649Y-86547717D01*
X85717649Y-86547717D01*
G37*
G36*
X74250000Y-86452500D02*
X72250000Y-86452500D01*
X72250000Y-84547500D01*
X74250000Y-84547500D01*
X74250000Y-86452500D01*
X74250000Y-86452500D01*
G37*
G36*
X78097649Y-84007717D02*
X78136827Y-84011576D01*
X78212228Y-84034449D01*
X78287629Y-84057321D01*
X78426608Y-84131608D01*
X78548422Y-84231578D01*
X78648392Y-84353392D01*
X78722679Y-84492371D01*
X78768424Y-84643174D01*
X78783870Y-84800000D01*
X78768424Y-84956826D01*
X78722679Y-85107629D01*
X78648392Y-85246608D01*
X78548422Y-85368422D01*
X78426608Y-85468392D01*
X78287629Y-85542679D01*
X78212228Y-85565551D01*
X78136827Y-85588424D01*
X78097649Y-85592283D01*
X78019295Y-85600000D01*
X77240705Y-85600000D01*
X77162351Y-85592283D01*
X77123173Y-85588424D01*
X77047772Y-85565551D01*
X76972371Y-85542679D01*
X76833392Y-85468392D01*
X76711578Y-85368422D01*
X76611608Y-85246608D01*
X76537321Y-85107629D01*
X76491576Y-84956826D01*
X76476130Y-84800000D01*
X76491576Y-84643174D01*
X76537321Y-84492371D01*
X76611608Y-84353392D01*
X76711578Y-84231578D01*
X76833392Y-84131608D01*
X76972371Y-84057321D01*
X77047772Y-84034449D01*
X77123173Y-84011576D01*
X77162351Y-84007717D01*
X77240705Y-84000000D01*
X78019295Y-84000000D01*
X78097649Y-84007717D01*
X78097649Y-84007717D01*
G37*
G36*
X85717649Y-84007717D02*
X85756827Y-84011576D01*
X85832228Y-84034449D01*
X85907629Y-84057321D01*
X86046608Y-84131608D01*
X86168422Y-84231578D01*
X86268392Y-84353392D01*
X86342679Y-84492371D01*
X86388424Y-84643174D01*
X86403870Y-84800000D01*
X86388424Y-84956826D01*
X86342679Y-85107629D01*
X86268392Y-85246608D01*
X86168422Y-85368422D01*
X86046608Y-85468392D01*
X85907629Y-85542679D01*
X85832228Y-85565551D01*
X85756827Y-85588424D01*
X85717649Y-85592283D01*
X85639295Y-85600000D01*
X84860705Y-85600000D01*
X84782351Y-85592283D01*
X84743173Y-85588424D01*
X84667772Y-85565551D01*
X84592371Y-85542679D01*
X84453392Y-85468392D01*
X84331578Y-85368422D01*
X84231608Y-85246608D01*
X84157321Y-85107629D01*
X84111576Y-84956826D01*
X84096130Y-84800000D01*
X84111576Y-84643174D01*
X84157321Y-84492371D01*
X84231608Y-84353392D01*
X84331578Y-84231578D01*
X84453392Y-84131608D01*
X84592371Y-84057321D01*
X84667772Y-84034449D01*
X84743173Y-84011576D01*
X84782351Y-84007717D01*
X84860705Y-84000000D01*
X85639295Y-84000000D01*
X85717649Y-84007717D01*
X85717649Y-84007717D01*
G37*
G36*
X73484224Y-82021282D02*
X73663769Y-82075747D01*
X73829241Y-82164193D01*
X73974278Y-82283222D01*
X74093307Y-82428259D01*
X74181753Y-82593731D01*
X74236218Y-82773276D01*
X74254608Y-82960000D01*
X74236218Y-83146724D01*
X74181753Y-83326269D01*
X74093307Y-83491741D01*
X73974278Y-83636778D01*
X73829241Y-83755807D01*
X73663769Y-83844253D01*
X73484224Y-83898718D01*
X73344289Y-83912500D01*
X73155711Y-83912500D01*
X73015776Y-83898718D01*
X72836231Y-83844253D01*
X72670759Y-83755807D01*
X72525722Y-83636778D01*
X72406693Y-83491741D01*
X72318247Y-83326269D01*
X72263782Y-83146724D01*
X72245392Y-82960000D01*
X72263782Y-82773276D01*
X72318247Y-82593731D01*
X72406693Y-82428259D01*
X72525722Y-82283222D01*
X72670759Y-82164193D01*
X72836231Y-82075747D01*
X73015776Y-82021282D01*
X73155711Y-82007500D01*
X73344289Y-82007500D01*
X73484224Y-82021282D01*
X73484224Y-82021282D01*
G37*
G36*
X77867649Y-80037717D02*
X77906827Y-80041576D01*
X77982228Y-80064449D01*
X78057629Y-80087321D01*
X78196608Y-80161608D01*
X78318422Y-80261578D01*
X78418392Y-80383392D01*
X78492679Y-80522371D01*
X78538424Y-80673174D01*
X78553870Y-80830000D01*
X78538424Y-80986826D01*
X78492679Y-81137629D01*
X78418392Y-81276608D01*
X78318422Y-81398422D01*
X78196608Y-81498392D01*
X78057629Y-81572679D01*
X77982228Y-81595551D01*
X77906827Y-81618424D01*
X77867649Y-81622283D01*
X77789295Y-81630000D01*
X77710705Y-81630000D01*
X77632351Y-81622283D01*
X77593173Y-81618424D01*
X77517772Y-81595551D01*
X77442371Y-81572679D01*
X77303392Y-81498392D01*
X77181578Y-81398422D01*
X77081608Y-81276608D01*
X77007321Y-81137629D01*
X76961576Y-80986826D01*
X76946130Y-80830000D01*
X76961576Y-80673174D01*
X77007321Y-80522371D01*
X77081608Y-80383392D01*
X77181578Y-80261578D01*
X77303392Y-80161608D01*
X77442371Y-80087321D01*
X77517772Y-80064449D01*
X77593173Y-80041576D01*
X77632351Y-80037717D01*
X77710705Y-80030000D01*
X77789295Y-80030000D01*
X77867649Y-80037717D01*
X77867649Y-80037717D01*
G37*
G36*
X85487649Y-80037717D02*
X85526827Y-80041576D01*
X85602228Y-80064449D01*
X85677629Y-80087321D01*
X85816608Y-80161608D01*
X85938422Y-80261578D01*
X86038392Y-80383392D01*
X86112679Y-80522371D01*
X86158424Y-80673174D01*
X86173870Y-80830000D01*
X86158424Y-80986826D01*
X86112679Y-81137629D01*
X86038392Y-81276608D01*
X85938422Y-81398422D01*
X85816608Y-81498392D01*
X85677629Y-81572679D01*
X85602228Y-81595551D01*
X85526827Y-81618424D01*
X85487649Y-81622283D01*
X85409295Y-81630000D01*
X85330705Y-81630000D01*
X85252351Y-81622283D01*
X85213173Y-81618424D01*
X85137772Y-81595551D01*
X85062371Y-81572679D01*
X84923392Y-81498392D01*
X84801578Y-81398422D01*
X84701608Y-81276608D01*
X84627321Y-81137629D01*
X84581576Y-80986826D01*
X84566130Y-80830000D01*
X84581576Y-80673174D01*
X84627321Y-80522371D01*
X84701608Y-80383392D01*
X84801578Y-80261578D01*
X84923392Y-80161608D01*
X85062371Y-80087321D01*
X85137772Y-80064449D01*
X85213173Y-80041576D01*
X85252351Y-80037717D01*
X85330705Y-80030000D01*
X85409295Y-80030000D01*
X85487649Y-80037717D01*
X85487649Y-80037717D01*
G37*
G36*
X90120857Y-79242272D02*
X90321042Y-79325191D01*
X90501213Y-79445578D01*
X90654422Y-79598787D01*
X90654424Y-79598790D01*
X90654425Y-79598791D01*
X90750931Y-79743222D01*
X90774809Y-79778958D01*
X90857728Y-79979143D01*
X90900000Y-80191658D01*
X90900000Y-80408342D01*
X90857728Y-80620857D01*
X90774809Y-80821042D01*
X90774807Y-80821045D01*
X90664035Y-80986827D01*
X90654422Y-81001213D01*
X90501213Y-81154422D01*
X90501210Y-81154424D01*
X90501209Y-81154425D01*
X90321045Y-81274807D01*
X90321042Y-81274809D01*
X90120857Y-81357728D01*
X89908342Y-81400000D01*
X89691658Y-81400000D01*
X89479143Y-81357728D01*
X89278958Y-81274809D01*
X89278955Y-81274807D01*
X89098791Y-81154425D01*
X89098790Y-81154424D01*
X89098787Y-81154422D01*
X88945578Y-81001213D01*
X88935966Y-80986827D01*
X88825193Y-80821045D01*
X88825191Y-80821042D01*
X88742272Y-80620857D01*
X88700000Y-80408342D01*
X88700000Y-80191658D01*
X88742272Y-79979143D01*
X88825191Y-79778958D01*
X88849069Y-79743222D01*
X88945575Y-79598791D01*
X88945576Y-79598790D01*
X88945578Y-79598787D01*
X89098787Y-79445578D01*
X89278958Y-79325191D01*
X89479143Y-79242272D01*
X89691658Y-79200000D01*
X89908342Y-79200000D01*
X90120857Y-79242272D01*
X90120857Y-79242272D01*
G37*
G36*
X105520857Y-79242272D02*
X105721042Y-79325191D01*
X105901213Y-79445578D01*
X106054422Y-79598787D01*
X106054424Y-79598790D01*
X106054425Y-79598791D01*
X106150931Y-79743222D01*
X106174809Y-79778958D01*
X106257728Y-79979143D01*
X106300000Y-80191658D01*
X106300000Y-80408342D01*
X106257728Y-80620857D01*
X106174809Y-80821042D01*
X106174807Y-80821045D01*
X106064035Y-80986827D01*
X106054422Y-81001213D01*
X105901213Y-81154422D01*
X105901210Y-81154424D01*
X105901209Y-81154425D01*
X105721045Y-81274807D01*
X105721042Y-81274809D01*
X105520857Y-81357728D01*
X105308342Y-81400000D01*
X105091658Y-81400000D01*
X104879143Y-81357728D01*
X104678958Y-81274809D01*
X104678955Y-81274807D01*
X104498791Y-81154425D01*
X104498790Y-81154424D01*
X104498787Y-81154422D01*
X104345578Y-81001213D01*
X104335966Y-80986827D01*
X104225193Y-80821045D01*
X104225191Y-80821042D01*
X104142272Y-80620857D01*
X104100000Y-80408342D01*
X104100000Y-80191658D01*
X104142272Y-79979143D01*
X104225191Y-79778958D01*
X104249069Y-79743222D01*
X104345575Y-79598791D01*
X104345576Y-79598790D01*
X104345578Y-79598787D01*
X104498787Y-79445578D01*
X104678958Y-79325191D01*
X104879143Y-79242272D01*
X105091658Y-79200000D01*
X105308342Y-79200000D01*
X105520857Y-79242272D01*
X105520857Y-79242272D01*
G37*
G36*
X73484224Y-79481282D02*
X73663769Y-79535747D01*
X73829241Y-79624193D01*
X73974278Y-79743222D01*
X74093307Y-79888259D01*
X74181753Y-80053731D01*
X74236218Y-80233276D01*
X74254608Y-80420000D01*
X74236218Y-80606724D01*
X74181753Y-80786269D01*
X74093307Y-80951741D01*
X73974278Y-81096778D01*
X73829241Y-81215807D01*
X73663769Y-81304253D01*
X73484224Y-81358718D01*
X73344289Y-81372500D01*
X73155711Y-81372500D01*
X73015776Y-81358718D01*
X72836231Y-81304253D01*
X72670759Y-81215807D01*
X72525722Y-81096778D01*
X72406693Y-80951741D01*
X72318247Y-80786269D01*
X72263782Y-80606724D01*
X72245392Y-80420000D01*
X72263782Y-80233276D01*
X72318247Y-80053731D01*
X72406693Y-79888259D01*
X72525722Y-79743222D01*
X72670759Y-79624193D01*
X72836231Y-79535747D01*
X73015776Y-79481282D01*
X73155711Y-79467500D01*
X73344289Y-79467500D01*
X73484224Y-79481282D01*
X73484224Y-79481282D01*
G37*
G36*
X85487649Y-77497717D02*
X85526827Y-77501576D01*
X85602227Y-77524448D01*
X85677629Y-77547321D01*
X85816608Y-77621608D01*
X85938422Y-77721578D01*
X86038392Y-77843392D01*
X86112679Y-77982371D01*
X86158424Y-78133174D01*
X86173870Y-78290000D01*
X86158424Y-78446826D01*
X86112679Y-78597629D01*
X86038392Y-78736608D01*
X85938422Y-78858422D01*
X85816608Y-78958392D01*
X85677629Y-79032679D01*
X85602227Y-79055552D01*
X85526827Y-79078424D01*
X85487649Y-79082283D01*
X85409295Y-79090000D01*
X85330705Y-79090000D01*
X85252351Y-79082283D01*
X85213173Y-79078424D01*
X85137773Y-79055552D01*
X85062371Y-79032679D01*
X84923392Y-78958392D01*
X84801578Y-78858422D01*
X84701608Y-78736608D01*
X84627321Y-78597629D01*
X84581576Y-78446826D01*
X84566130Y-78290000D01*
X84581576Y-78133174D01*
X84627321Y-77982371D01*
X84701608Y-77843392D01*
X84801578Y-77721578D01*
X84923392Y-77621608D01*
X85062371Y-77547321D01*
X85137772Y-77524449D01*
X85213173Y-77501576D01*
X85252351Y-77497717D01*
X85330705Y-77490000D01*
X85409295Y-77490000D01*
X85487649Y-77497717D01*
X85487649Y-77497717D01*
G37*
G36*
X77867649Y-77497717D02*
X77906827Y-77501576D01*
X77982227Y-77524448D01*
X78057629Y-77547321D01*
X78196608Y-77621608D01*
X78318422Y-77721578D01*
X78418392Y-77843392D01*
X78492679Y-77982371D01*
X78538424Y-78133174D01*
X78553870Y-78290000D01*
X78538424Y-78446826D01*
X78492679Y-78597629D01*
X78418392Y-78736608D01*
X78318422Y-78858422D01*
X78196608Y-78958392D01*
X78057629Y-79032679D01*
X77982227Y-79055552D01*
X77906827Y-79078424D01*
X77867649Y-79082283D01*
X77789295Y-79090000D01*
X77710705Y-79090000D01*
X77632351Y-79082283D01*
X77593173Y-79078424D01*
X77517773Y-79055552D01*
X77442371Y-79032679D01*
X77303392Y-78958392D01*
X77181578Y-78858422D01*
X77081608Y-78736608D01*
X77007321Y-78597629D01*
X76961576Y-78446826D01*
X76946130Y-78290000D01*
X76961576Y-78133174D01*
X77007321Y-77982371D01*
X77081608Y-77843392D01*
X77181578Y-77721578D01*
X77303392Y-77621608D01*
X77442371Y-77547321D01*
X77517772Y-77524449D01*
X77593173Y-77501576D01*
X77632351Y-77497717D01*
X77710705Y-77490000D01*
X77789295Y-77490000D01*
X77867649Y-77497717D01*
X77867649Y-77497717D01*
G37*
G36*
X73101464Y-75128837D02*
X73133028Y-75138412D01*
X73162117Y-75153960D01*
X73187614Y-75174886D01*
X73208540Y-75200383D01*
X73224088Y-75229472D01*
X73233663Y-75261036D01*
X73237500Y-75299998D01*
X73237500Y-76700002D01*
X73233663Y-76738964D01*
X73224088Y-76770528D01*
X73208540Y-76799617D01*
X73187614Y-76825114D01*
X73162117Y-76846040D01*
X73133028Y-76861588D01*
X73101464Y-76871163D01*
X73062502Y-76875000D01*
X71987498Y-76875000D01*
X71948536Y-76871163D01*
X71916972Y-76861588D01*
X71887883Y-76846040D01*
X71862386Y-76825114D01*
X71841460Y-76799617D01*
X71825912Y-76770528D01*
X71816337Y-76738964D01*
X71812500Y-76700002D01*
X71812500Y-75299998D01*
X71816337Y-75261036D01*
X71825912Y-75229472D01*
X71841460Y-75200383D01*
X71862386Y-75174886D01*
X71887883Y-75153960D01*
X71916972Y-75138412D01*
X71948536Y-75128837D01*
X71987498Y-75125000D01*
X73062502Y-75125000D01*
X73101464Y-75128837D01*
X73101464Y-75128837D01*
G37*
G36*
X76076464Y-75128837D02*
X76108028Y-75138412D01*
X76137117Y-75153960D01*
X76162614Y-75174886D01*
X76183540Y-75200383D01*
X76199088Y-75229472D01*
X76208663Y-75261036D01*
X76212500Y-75299998D01*
X76212500Y-76700002D01*
X76208663Y-76738964D01*
X76199088Y-76770528D01*
X76183540Y-76799617D01*
X76162614Y-76825114D01*
X76137117Y-76846040D01*
X76108028Y-76861588D01*
X76076464Y-76871163D01*
X76037502Y-76875000D01*
X74962498Y-76875000D01*
X74923536Y-76871163D01*
X74891972Y-76861588D01*
X74862883Y-76846040D01*
X74837386Y-76825114D01*
X74816460Y-76799617D01*
X74800912Y-76770528D01*
X74791337Y-76738964D01*
X74787500Y-76700002D01*
X74787500Y-75299998D01*
X74791337Y-75261036D01*
X74800912Y-75229472D01*
X74816460Y-75200383D01*
X74837386Y-75174886D01*
X74862883Y-75153960D01*
X74891972Y-75138412D01*
X74923536Y-75128837D01*
X74962498Y-75125000D01*
X76037502Y-75125000D01*
X76076464Y-75128837D01*
X76076464Y-75128837D01*
G37*
G36*
X97050000Y-76800000D02*
X95450000Y-76800000D01*
X95450000Y-75200000D01*
X97050000Y-75200000D01*
X97050000Y-76800000D01*
X97050000Y-76800000D01*
G37*
G36*
X88747649Y-75207717D02*
X88786827Y-75211576D01*
X88845822Y-75229472D01*
X88937629Y-75257321D01*
X89076608Y-75331608D01*
X89198422Y-75431578D01*
X89298392Y-75553392D01*
X89372679Y-75692371D01*
X89372679Y-75692372D01*
X89418424Y-75843173D01*
X89433870Y-76000000D01*
X89418424Y-76156827D01*
X89395552Y-76232227D01*
X89372679Y-76307629D01*
X89298392Y-76446608D01*
X89198422Y-76568422D01*
X89076608Y-76668392D01*
X88937629Y-76742679D01*
X88867695Y-76763893D01*
X88786827Y-76788424D01*
X88747649Y-76792283D01*
X88669295Y-76800000D01*
X88590705Y-76800000D01*
X88512351Y-76792283D01*
X88473173Y-76788424D01*
X88392305Y-76763893D01*
X88322371Y-76742679D01*
X88183392Y-76668392D01*
X88061578Y-76568422D01*
X87961608Y-76446608D01*
X87887321Y-76307629D01*
X87864448Y-76232227D01*
X87841576Y-76156827D01*
X87826130Y-76000000D01*
X87841576Y-75843173D01*
X87887321Y-75692372D01*
X87887321Y-75692371D01*
X87961608Y-75553392D01*
X88061578Y-75431578D01*
X88183392Y-75331608D01*
X88322371Y-75257321D01*
X88414178Y-75229472D01*
X88473173Y-75211576D01*
X88512351Y-75207717D01*
X88590705Y-75200000D01*
X88669295Y-75200000D01*
X88747649Y-75207717D01*
X88747649Y-75207717D01*
G37*
G36*
X85487649Y-74957717D02*
X85526827Y-74961576D01*
X85602228Y-74984449D01*
X85677629Y-75007321D01*
X85816608Y-75081608D01*
X85938422Y-75181578D01*
X86038392Y-75303392D01*
X86112679Y-75442371D01*
X86126813Y-75488964D01*
X86158424Y-75593173D01*
X86161181Y-75621163D01*
X86173870Y-75750000D01*
X86158424Y-75906826D01*
X86112679Y-76057629D01*
X86038392Y-76196608D01*
X85938422Y-76318422D01*
X85816608Y-76418392D01*
X85677629Y-76492679D01*
X85602227Y-76515552D01*
X85526827Y-76538424D01*
X85487649Y-76542283D01*
X85409295Y-76550000D01*
X85330705Y-76550000D01*
X85252351Y-76542283D01*
X85213173Y-76538424D01*
X85137773Y-76515552D01*
X85062371Y-76492679D01*
X84923392Y-76418392D01*
X84801578Y-76318422D01*
X84701608Y-76196608D01*
X84627321Y-76057629D01*
X84581576Y-75906826D01*
X84566130Y-75750000D01*
X84578819Y-75621163D01*
X84581576Y-75593173D01*
X84613187Y-75488964D01*
X84627321Y-75442371D01*
X84701608Y-75303392D01*
X84801578Y-75181578D01*
X84923392Y-75081608D01*
X85062371Y-75007321D01*
X85137772Y-74984449D01*
X85213173Y-74961576D01*
X85252351Y-74957717D01*
X85330705Y-74950000D01*
X85409295Y-74950000D01*
X85487649Y-74957717D01*
X85487649Y-74957717D01*
G37*
G36*
X78550000Y-76550000D02*
X76950000Y-76550000D01*
X76950000Y-74950000D01*
X78550000Y-74950000D01*
X78550000Y-76550000D01*
X78550000Y-76550000D01*
G37*
G36*
X102576464Y-73878837D02*
X102608028Y-73888412D01*
X102637117Y-73903960D01*
X102662614Y-73924886D01*
X102683540Y-73950383D01*
X102699088Y-73979472D01*
X102708663Y-74011036D01*
X102712500Y-74049998D01*
X102712500Y-75450002D01*
X102708663Y-75488964D01*
X102699088Y-75520528D01*
X102683540Y-75549617D01*
X102662614Y-75575114D01*
X102637117Y-75596040D01*
X102608028Y-75611588D01*
X102576464Y-75621163D01*
X102537502Y-75625000D01*
X101462498Y-75625000D01*
X101423536Y-75621163D01*
X101391972Y-75611588D01*
X101362883Y-75596040D01*
X101337386Y-75575114D01*
X101316460Y-75549617D01*
X101300912Y-75520528D01*
X101291337Y-75488964D01*
X101287500Y-75450002D01*
X101287500Y-74049998D01*
X101291337Y-74011036D01*
X101300912Y-73979472D01*
X101316460Y-73950383D01*
X101337386Y-73924886D01*
X101362883Y-73903960D01*
X101391972Y-73888412D01*
X101423536Y-73878837D01*
X101462498Y-73875000D01*
X102537502Y-73875000D01*
X102576464Y-73878837D01*
X102576464Y-73878837D01*
G37*
G36*
X99601464Y-73878837D02*
X99633028Y-73888412D01*
X99662117Y-73903960D01*
X99687614Y-73924886D01*
X99708540Y-73950383D01*
X99724088Y-73979472D01*
X99733663Y-74011036D01*
X99737500Y-74049998D01*
X99737500Y-75450002D01*
X99733663Y-75488964D01*
X99724088Y-75520528D01*
X99708540Y-75549617D01*
X99687614Y-75575114D01*
X99662117Y-75596040D01*
X99633028Y-75611588D01*
X99601464Y-75621163D01*
X99562502Y-75625000D01*
X98487498Y-75625000D01*
X98448536Y-75621163D01*
X98416972Y-75611588D01*
X98387883Y-75596040D01*
X98362386Y-75575114D01*
X98341460Y-75549617D01*
X98325912Y-75520528D01*
X98316337Y-75488964D01*
X98312500Y-75450002D01*
X98312500Y-74049998D01*
X98316337Y-74011036D01*
X98325912Y-73979472D01*
X98341460Y-73950383D01*
X98362386Y-73924886D01*
X98387883Y-73903960D01*
X98416972Y-73888412D01*
X98448536Y-73878837D01*
X98487498Y-73875000D01*
X99562502Y-73875000D01*
X99601464Y-73878837D01*
X99601464Y-73878837D01*
G37*
G36*
X105916630Y-72612299D02*
X106076855Y-72660903D01*
X106224520Y-72739831D01*
X106353949Y-72846051D01*
X106460169Y-72975480D01*
X106539097Y-73123145D01*
X106587701Y-73283370D01*
X106604112Y-73450000D01*
X106587701Y-73616630D01*
X106539097Y-73776855D01*
X106460169Y-73924520D01*
X106353949Y-74053949D01*
X106224520Y-74160169D01*
X106076855Y-74239097D01*
X105916630Y-74287701D01*
X105791752Y-74300000D01*
X105708248Y-74300000D01*
X105583370Y-74287701D01*
X105423145Y-74239097D01*
X105275480Y-74160169D01*
X105146051Y-74053949D01*
X105039831Y-73924520D01*
X104960903Y-73776855D01*
X104912299Y-73616630D01*
X104895888Y-73450000D01*
X104912299Y-73283370D01*
X104960903Y-73123145D01*
X105039831Y-72975480D01*
X105146051Y-72846051D01*
X105275480Y-72739831D01*
X105423145Y-72660903D01*
X105583370Y-72612299D01*
X105708248Y-72600000D01*
X105791752Y-72600000D01*
X105916630Y-72612299D01*
X105916630Y-72612299D01*
G37*
G36*
X80000000Y-73850000D02*
X79000000Y-73850000D01*
X79000000Y-71350000D01*
X80000000Y-71350000D01*
X80000000Y-73850000D01*
X80000000Y-73850000D01*
G37*
G36*
X82000000Y-73850000D02*
X81000000Y-73850000D01*
X81000000Y-71350000D01*
X82000000Y-71350000D01*
X82000000Y-73850000D01*
X82000000Y-73850000D01*
G37*
G36*
X84000000Y-73850000D02*
X83000000Y-73850000D01*
X83000000Y-71350000D01*
X84000000Y-71350000D01*
X84000000Y-73850000D01*
X84000000Y-73850000D01*
G37*
G36*
X86000000Y-73850000D02*
X85000000Y-73850000D01*
X85000000Y-71350000D01*
X86000000Y-71350000D01*
X86000000Y-73850000D01*
X86000000Y-73850000D01*
G37*
G36*
X88000000Y-73850000D02*
X87000000Y-73850000D01*
X87000000Y-71350000D01*
X88000000Y-71350000D01*
X88000000Y-73850000D01*
X88000000Y-73850000D01*
G37*
G36*
X90000000Y-73850000D02*
X89000000Y-73850000D01*
X89000000Y-71350000D01*
X90000000Y-71350000D01*
X90000000Y-73850000D01*
X90000000Y-73850000D01*
G37*
G36*
X92000000Y-73850000D02*
X91000000Y-73850000D01*
X91000000Y-71350000D01*
X92000000Y-71350000D01*
X92000000Y-73850000D01*
X92000000Y-73850000D01*
G37*
G36*
X94000000Y-73850000D02*
X93000000Y-73850000D01*
X93000000Y-71350000D01*
X94000000Y-71350000D01*
X94000000Y-73850000D01*
X94000000Y-73850000D01*
G37*
G36*
X99601464Y-70128837D02*
X99633028Y-70138412D01*
X99662117Y-70153960D01*
X99687614Y-70174886D01*
X99708540Y-70200383D01*
X99724088Y-70229472D01*
X99733663Y-70261036D01*
X99737500Y-70299998D01*
X99737500Y-71700002D01*
X99733663Y-71738964D01*
X99724088Y-71770528D01*
X99708540Y-71799617D01*
X99687614Y-71825114D01*
X99662117Y-71846040D01*
X99633028Y-71861588D01*
X99601464Y-71871163D01*
X99562502Y-71875000D01*
X98487498Y-71875000D01*
X98448536Y-71871163D01*
X98416972Y-71861588D01*
X98387883Y-71846040D01*
X98362386Y-71825114D01*
X98341460Y-71799617D01*
X98325912Y-71770528D01*
X98316337Y-71738964D01*
X98312500Y-71700002D01*
X98312500Y-70299998D01*
X98316337Y-70261036D01*
X98325912Y-70229472D01*
X98341460Y-70200383D01*
X98362386Y-70174886D01*
X98387883Y-70153960D01*
X98416972Y-70138412D01*
X98448536Y-70128837D01*
X98487498Y-70125000D01*
X99562502Y-70125000D01*
X99601464Y-70128837D01*
X99601464Y-70128837D01*
G37*
G36*
X102576464Y-70128837D02*
X102608028Y-70138412D01*
X102637117Y-70153960D01*
X102662614Y-70174886D01*
X102683540Y-70200383D01*
X102699088Y-70229472D01*
X102708663Y-70261036D01*
X102712500Y-70299998D01*
X102712500Y-71700002D01*
X102708663Y-71738964D01*
X102699088Y-71770528D01*
X102683540Y-71799617D01*
X102662614Y-71825114D01*
X102637117Y-71846040D01*
X102608028Y-71861588D01*
X102576464Y-71871163D01*
X102537502Y-71875000D01*
X101462498Y-71875000D01*
X101423536Y-71871163D01*
X101391972Y-71861588D01*
X101362883Y-71846040D01*
X101337386Y-71825114D01*
X101316460Y-71799617D01*
X101300912Y-71770528D01*
X101291337Y-71738964D01*
X101287500Y-71700002D01*
X101287500Y-70299998D01*
X101291337Y-70261036D01*
X101300912Y-70229472D01*
X101316460Y-70200383D01*
X101337386Y-70174886D01*
X101362883Y-70153960D01*
X101391972Y-70138412D01*
X101423536Y-70128837D01*
X101462498Y-70125000D01*
X102537502Y-70125000D01*
X102576464Y-70128837D01*
X102576464Y-70128837D01*
G37*
G36*
X105916630Y-70072299D02*
X106076855Y-70120903D01*
X106224520Y-70199831D01*
X106353949Y-70306051D01*
X106460169Y-70435480D01*
X106539097Y-70583145D01*
X106587701Y-70743370D01*
X106604112Y-70910000D01*
X106587701Y-71076630D01*
X106539097Y-71236855D01*
X106460169Y-71384520D01*
X106353949Y-71513949D01*
X106224520Y-71620169D01*
X106076855Y-71699097D01*
X105916630Y-71747701D01*
X105791752Y-71760000D01*
X105708248Y-71760000D01*
X105583370Y-71747701D01*
X105423145Y-71699097D01*
X105275480Y-71620169D01*
X105146051Y-71513949D01*
X105039831Y-71384520D01*
X104960903Y-71236855D01*
X104912299Y-71076630D01*
X104895888Y-70910000D01*
X104912299Y-70743370D01*
X104960903Y-70583145D01*
X105039831Y-70435480D01*
X105146051Y-70306051D01*
X105275480Y-70199831D01*
X105423145Y-70120903D01*
X105583370Y-70072299D01*
X105708248Y-70060000D01*
X105791752Y-70060000D01*
X105916630Y-70072299D01*
X105916630Y-70072299D01*
G37*
G36*
X95900000Y-70500000D02*
X94100000Y-70500000D01*
X94100000Y-69500000D01*
X95900000Y-69500000D01*
X95900000Y-70500000D01*
X95900000Y-70500000D01*
G37*
G36*
X105916630Y-67532299D02*
X106076855Y-67580903D01*
X106224520Y-67659831D01*
X106353949Y-67766051D01*
X106460169Y-67895480D01*
X106539097Y-68043145D01*
X106587701Y-68203370D01*
X106604112Y-68370000D01*
X106587701Y-68536630D01*
X106539097Y-68696855D01*
X106460169Y-68844520D01*
X106353949Y-68973949D01*
X106224520Y-69080169D01*
X106076855Y-69159097D01*
X105916630Y-69207701D01*
X105791752Y-69220000D01*
X105708248Y-69220000D01*
X105583370Y-69207701D01*
X105423145Y-69159097D01*
X105275480Y-69080169D01*
X105146051Y-68973949D01*
X105039831Y-68844520D01*
X104960903Y-68696855D01*
X104912299Y-68536630D01*
X104895888Y-68370000D01*
X104912299Y-68203370D01*
X104960903Y-68043145D01*
X105039831Y-67895480D01*
X105146051Y-67766051D01*
X105275480Y-67659831D01*
X105423145Y-67580903D01*
X105583370Y-67532299D01*
X105708248Y-67520000D01*
X105791752Y-67520000D01*
X105916630Y-67532299D01*
X105916630Y-67532299D01*
G37*
G36*
X95900000Y-68500000D02*
X94100000Y-68500000D01*
X94100000Y-67500000D01*
X95900000Y-67500000D01*
X95900000Y-68500000D01*
X95900000Y-68500000D01*
G37*
G36*
X99588964Y-66378837D02*
X99620528Y-66388412D01*
X99649617Y-66403960D01*
X99675114Y-66424886D01*
X99696040Y-66450383D01*
X99711588Y-66479472D01*
X99721163Y-66511036D01*
X99725000Y-66549998D01*
X99725000Y-67950002D01*
X99721163Y-67988964D01*
X99711588Y-68020528D01*
X99696040Y-68049617D01*
X99675114Y-68075114D01*
X99649617Y-68096040D01*
X99620528Y-68111588D01*
X99588964Y-68121163D01*
X99550002Y-68125000D01*
X98474998Y-68125000D01*
X98436036Y-68121163D01*
X98404472Y-68111588D01*
X98375383Y-68096040D01*
X98349886Y-68075114D01*
X98328960Y-68049617D01*
X98313412Y-68020528D01*
X98303837Y-67988964D01*
X98300000Y-67950002D01*
X98300000Y-66549998D01*
X98303837Y-66511036D01*
X98313412Y-66479472D01*
X98328960Y-66450383D01*
X98349886Y-66424886D01*
X98375383Y-66403960D01*
X98404472Y-66388412D01*
X98436036Y-66378837D01*
X98474998Y-66375000D01*
X99550002Y-66375000D01*
X99588964Y-66378837D01*
X99588964Y-66378837D01*
G37*
G36*
X102563964Y-66378837D02*
X102595528Y-66388412D01*
X102624617Y-66403960D01*
X102650114Y-66424886D01*
X102671040Y-66450383D01*
X102686588Y-66479472D01*
X102696163Y-66511036D01*
X102700000Y-66549998D01*
X102700000Y-67950002D01*
X102696163Y-67988964D01*
X102686588Y-68020528D01*
X102671040Y-68049617D01*
X102650114Y-68075114D01*
X102624617Y-68096040D01*
X102595528Y-68111588D01*
X102563964Y-68121163D01*
X102525002Y-68125000D01*
X101449998Y-68125000D01*
X101411036Y-68121163D01*
X101379472Y-68111588D01*
X101350383Y-68096040D01*
X101324886Y-68075114D01*
X101303960Y-68049617D01*
X101288412Y-68020528D01*
X101278837Y-67988964D01*
X101275000Y-67950002D01*
X101275000Y-66549998D01*
X101278837Y-66511036D01*
X101288412Y-66479472D01*
X101303960Y-66450383D01*
X101324886Y-66424886D01*
X101350383Y-66403960D01*
X101379472Y-66388412D01*
X101411036Y-66378837D01*
X101449998Y-66375000D01*
X102525002Y-66375000D01*
X102563964Y-66378837D01*
X102563964Y-66378837D01*
G37*
G36*
X105916630Y-64992299D02*
X106076855Y-65040903D01*
X106224520Y-65119831D01*
X106353949Y-65226051D01*
X106460169Y-65355480D01*
X106539097Y-65503145D01*
X106587701Y-65663370D01*
X106604112Y-65830000D01*
X106587701Y-65996630D01*
X106539097Y-66156855D01*
X106460169Y-66304520D01*
X106353949Y-66433949D01*
X106224520Y-66540169D01*
X106076855Y-66619097D01*
X105916630Y-66667701D01*
X105791752Y-66680000D01*
X105708248Y-66680000D01*
X105583370Y-66667701D01*
X105423145Y-66619097D01*
X105275480Y-66540169D01*
X105146051Y-66433949D01*
X105039831Y-66304520D01*
X104960903Y-66156855D01*
X104912299Y-65996630D01*
X104895888Y-65830000D01*
X104912299Y-65663370D01*
X104960903Y-65503145D01*
X105039831Y-65355480D01*
X105146051Y-65226051D01*
X105275480Y-65119831D01*
X105423145Y-65040903D01*
X105583370Y-64992299D01*
X105708248Y-64980000D01*
X105791752Y-64980000D01*
X105916630Y-64992299D01*
X105916630Y-64992299D01*
G37*
G36*
X95900000Y-66500000D02*
X94100000Y-66500000D01*
X94100000Y-65500000D01*
X95900000Y-65500000D01*
X95900000Y-66500000D01*
X95900000Y-66500000D01*
G37*
G36*
X95900000Y-64500000D02*
X94100000Y-64500000D01*
X94100000Y-63500000D01*
X95900000Y-63500000D01*
X95900000Y-64500000D01*
X95900000Y-64500000D01*
G37*
G36*
X99601464Y-62628837D02*
X99633028Y-62638412D01*
X99662117Y-62653960D01*
X99687614Y-62674886D01*
X99708540Y-62700383D01*
X99724088Y-62729472D01*
X99733663Y-62761036D01*
X99737500Y-62799998D01*
X99737500Y-64200002D01*
X99733663Y-64238964D01*
X99724088Y-64270528D01*
X99708540Y-64299617D01*
X99687614Y-64325114D01*
X99662117Y-64346040D01*
X99633028Y-64361588D01*
X99601464Y-64371163D01*
X99562502Y-64375000D01*
X98487498Y-64375000D01*
X98448536Y-64371163D01*
X98416972Y-64361588D01*
X98387883Y-64346040D01*
X98362386Y-64325114D01*
X98341460Y-64299617D01*
X98325912Y-64270528D01*
X98316337Y-64238964D01*
X98312500Y-64200002D01*
X98312500Y-62799998D01*
X98316337Y-62761036D01*
X98325912Y-62729472D01*
X98341460Y-62700383D01*
X98362386Y-62674886D01*
X98387883Y-62653960D01*
X98416972Y-62638412D01*
X98448536Y-62628837D01*
X98487498Y-62625000D01*
X99562502Y-62625000D01*
X99601464Y-62628837D01*
X99601464Y-62628837D01*
G37*
G36*
X102576464Y-62628837D02*
X102608028Y-62638412D01*
X102637117Y-62653960D01*
X102662614Y-62674886D01*
X102683540Y-62700383D01*
X102699088Y-62729472D01*
X102708663Y-62761036D01*
X102712500Y-62799998D01*
X102712500Y-64200002D01*
X102708663Y-64238964D01*
X102699088Y-64270528D01*
X102683540Y-64299617D01*
X102662614Y-64325114D01*
X102637117Y-64346040D01*
X102608028Y-64361588D01*
X102576464Y-64371163D01*
X102537502Y-64375000D01*
X101462498Y-64375000D01*
X101423536Y-64371163D01*
X101391972Y-64361588D01*
X101362883Y-64346040D01*
X101337386Y-64325114D01*
X101316460Y-64299617D01*
X101300912Y-64270528D01*
X101291337Y-64238964D01*
X101287500Y-64200002D01*
X101287500Y-62799998D01*
X101291337Y-62761036D01*
X101300912Y-62729472D01*
X101316460Y-62700383D01*
X101337386Y-62674886D01*
X101362883Y-62653960D01*
X101391972Y-62638412D01*
X101423536Y-62628837D01*
X101462498Y-62625000D01*
X102537502Y-62625000D01*
X102576464Y-62628837D01*
X102576464Y-62628837D01*
G37*
G36*
X105916630Y-62452299D02*
X106076855Y-62500903D01*
X106224520Y-62579831D01*
X106353949Y-62686051D01*
X106460169Y-62815480D01*
X106539097Y-62963145D01*
X106587701Y-63123370D01*
X106604112Y-63290000D01*
X106587701Y-63456630D01*
X106539097Y-63616855D01*
X106460169Y-63764520D01*
X106353949Y-63893949D01*
X106224520Y-64000169D01*
X106076855Y-64079097D01*
X105916630Y-64127701D01*
X105791752Y-64140000D01*
X105708248Y-64140000D01*
X105583370Y-64127701D01*
X105423145Y-64079097D01*
X105275480Y-64000169D01*
X105146051Y-63893949D01*
X105039831Y-63764520D01*
X104960903Y-63616855D01*
X104912299Y-63456630D01*
X104895888Y-63290000D01*
X104912299Y-63123370D01*
X104960903Y-62963145D01*
X105039831Y-62815480D01*
X105146051Y-62686051D01*
X105275480Y-62579831D01*
X105423145Y-62500903D01*
X105583370Y-62452299D01*
X105708248Y-62440000D01*
X105791752Y-62440000D01*
X105916630Y-62452299D01*
X105916630Y-62452299D01*
G37*
G36*
X95900000Y-62500000D02*
X94100000Y-62500000D01*
X94100000Y-61500000D01*
X95900000Y-61500000D01*
X95900000Y-62500000D01*
X95900000Y-62500000D01*
G37*
G36*
X106600000Y-61600000D02*
X104900000Y-61600000D01*
X104900000Y-59900000D01*
X106600000Y-59900000D01*
X106600000Y-61600000D01*
X106600000Y-61600000D01*
G37*
G36*
X99601464Y-58878837D02*
X99633028Y-58888412D01*
X99662117Y-58903960D01*
X99687614Y-58924886D01*
X99708540Y-58950383D01*
X99724088Y-58979472D01*
X99733663Y-59011036D01*
X99737500Y-59049998D01*
X99737500Y-60450002D01*
X99733663Y-60488964D01*
X99724088Y-60520528D01*
X99708540Y-60549617D01*
X99687614Y-60575114D01*
X99662117Y-60596040D01*
X99633028Y-60611588D01*
X99601464Y-60621163D01*
X99562502Y-60625000D01*
X98487498Y-60625000D01*
X98448536Y-60621163D01*
X98416972Y-60611588D01*
X98387883Y-60596040D01*
X98362386Y-60575114D01*
X98341460Y-60549617D01*
X98325912Y-60520528D01*
X98316337Y-60488964D01*
X98312500Y-60450002D01*
X98312500Y-59049998D01*
X98316337Y-59011036D01*
X98325912Y-58979472D01*
X98341460Y-58950383D01*
X98362386Y-58924886D01*
X98387883Y-58903960D01*
X98416972Y-58888412D01*
X98448536Y-58878837D01*
X98487498Y-58875000D01*
X99562502Y-58875000D01*
X99601464Y-58878837D01*
X99601464Y-58878837D01*
G37*
G36*
X102576464Y-58878837D02*
X102608028Y-58888412D01*
X102637117Y-58903960D01*
X102662614Y-58924886D01*
X102683540Y-58950383D01*
X102699088Y-58979472D01*
X102708663Y-59011036D01*
X102712500Y-59049998D01*
X102712500Y-60450002D01*
X102708663Y-60488964D01*
X102699088Y-60520528D01*
X102683540Y-60549617D01*
X102662614Y-60575114D01*
X102637117Y-60596040D01*
X102608028Y-60611588D01*
X102576464Y-60621163D01*
X102537502Y-60625000D01*
X101462498Y-60625000D01*
X101423536Y-60621163D01*
X101391972Y-60611588D01*
X101362883Y-60596040D01*
X101337386Y-60575114D01*
X101316460Y-60549617D01*
X101300912Y-60520528D01*
X101291337Y-60488964D01*
X101287500Y-60450002D01*
X101287500Y-59049998D01*
X101291337Y-59011036D01*
X101300912Y-58979472D01*
X101316460Y-58950383D01*
X101337386Y-58924886D01*
X101362883Y-58903960D01*
X101391972Y-58888412D01*
X101423536Y-58878837D01*
X101462498Y-58875000D01*
X102537502Y-58875000D01*
X102576464Y-58878837D01*
X102576464Y-58878837D01*
G37*
G36*
X95900000Y-60500000D02*
X94100000Y-60500000D01*
X94100000Y-59500000D01*
X95900000Y-59500000D01*
X95900000Y-60500000D01*
X95900000Y-60500000D01*
G37*
G36*
X86000000Y-58650000D02*
X85000000Y-58650000D01*
X85000000Y-56150000D01*
X86000000Y-56150000D01*
X86000000Y-58650000D01*
X86000000Y-58650000D01*
G37*
G36*
X84000000Y-58650000D02*
X83000000Y-58650000D01*
X83000000Y-56150000D01*
X84000000Y-56150000D01*
X84000000Y-58650000D01*
X84000000Y-58650000D01*
G37*
G36*
X82000000Y-58650000D02*
X81000000Y-58650000D01*
X81000000Y-56150000D01*
X82000000Y-56150000D01*
X82000000Y-58650000D01*
X82000000Y-58650000D01*
G37*
G36*
X80000000Y-58650000D02*
X79000000Y-58650000D01*
X79000000Y-56150000D01*
X80000000Y-56150000D01*
X80000000Y-58650000D01*
X80000000Y-58650000D01*
G37*
G36*
X94000000Y-58650000D02*
X93000000Y-58650000D01*
X93000000Y-56150000D01*
X94000000Y-56150000D01*
X94000000Y-58650000D01*
X94000000Y-58650000D01*
G37*
G36*
X92000000Y-58650000D02*
X91000000Y-58650000D01*
X91000000Y-56150000D01*
X92000000Y-56150000D01*
X92000000Y-58650000D01*
X92000000Y-58650000D01*
G37*
G36*
X90000000Y-58650000D02*
X89000000Y-58650000D01*
X89000000Y-56150000D01*
X90000000Y-56150000D01*
X90000000Y-58650000D01*
X90000000Y-58650000D01*
G37*
G36*
X88000000Y-58650000D02*
X87000000Y-58650000D01*
X87000000Y-56150000D01*
X88000000Y-56150000D01*
X88000000Y-58650000D01*
X88000000Y-58650000D01*
G37*
G36*
X105987649Y-54077717D02*
X106026827Y-54081576D01*
X106102228Y-54104449D01*
X106177629Y-54127321D01*
X106316608Y-54201608D01*
X106438422Y-54301578D01*
X106538392Y-54423392D01*
X106612679Y-54562371D01*
X106658424Y-54713174D01*
X106673870Y-54870000D01*
X106658424Y-55026826D01*
X106612679Y-55177629D01*
X106538392Y-55316608D01*
X106438422Y-55438422D01*
X106316608Y-55538392D01*
X106177629Y-55612679D01*
X106102228Y-55635551D01*
X106026827Y-55658424D01*
X105987649Y-55662283D01*
X105909295Y-55670000D01*
X105830705Y-55670000D01*
X105752351Y-55662283D01*
X105713173Y-55658424D01*
X105637772Y-55635551D01*
X105562371Y-55612679D01*
X105423392Y-55538392D01*
X105301578Y-55438422D01*
X105201608Y-55316608D01*
X105127321Y-55177629D01*
X105081576Y-55026826D01*
X105066130Y-54870000D01*
X105081576Y-54713174D01*
X105127321Y-54562371D01*
X105201608Y-54423392D01*
X105301578Y-54301578D01*
X105423392Y-54201608D01*
X105562371Y-54127321D01*
X105637773Y-54104448D01*
X105713173Y-54081576D01*
X105752351Y-54077717D01*
X105830705Y-54070000D01*
X105909295Y-54070000D01*
X105987649Y-54077717D01*
X105987649Y-54077717D01*
G37*
G36*
X98367649Y-54077717D02*
X98406827Y-54081576D01*
X98482228Y-54104449D01*
X98557629Y-54127321D01*
X98696608Y-54201608D01*
X98818422Y-54301578D01*
X98918392Y-54423392D01*
X98992679Y-54562371D01*
X99038424Y-54713174D01*
X99053870Y-54870000D01*
X99038424Y-55026826D01*
X98992679Y-55177629D01*
X98918392Y-55316608D01*
X98818422Y-55438422D01*
X98696608Y-55538392D01*
X98557629Y-55612679D01*
X98482228Y-55635551D01*
X98406827Y-55658424D01*
X98367649Y-55662283D01*
X98289295Y-55670000D01*
X98210705Y-55670000D01*
X98132351Y-55662283D01*
X98093173Y-55658424D01*
X98017772Y-55635551D01*
X97942371Y-55612679D01*
X97803392Y-55538392D01*
X97681578Y-55438422D01*
X97581608Y-55316608D01*
X97507321Y-55177629D01*
X97461576Y-55026826D01*
X97446130Y-54870000D01*
X97461576Y-54713174D01*
X97507321Y-54562371D01*
X97581608Y-54423392D01*
X97681578Y-54301578D01*
X97803392Y-54201608D01*
X97942371Y-54127321D01*
X98017773Y-54104448D01*
X98093173Y-54081576D01*
X98132351Y-54077717D01*
X98210705Y-54070000D01*
X98289295Y-54070000D01*
X98367649Y-54077717D01*
X98367649Y-54077717D01*
G37*
G36*
X105987649Y-51537717D02*
X106026827Y-51541576D01*
X106102228Y-51564449D01*
X106177629Y-51587321D01*
X106316608Y-51661608D01*
X106438422Y-51761578D01*
X106538392Y-51883392D01*
X106612679Y-52022371D01*
X106658424Y-52173174D01*
X106673870Y-52330000D01*
X106658424Y-52486826D01*
X106612679Y-52637629D01*
X106538392Y-52776608D01*
X106438422Y-52898422D01*
X106316608Y-52998392D01*
X106177629Y-53072679D01*
X106128107Y-53087701D01*
X106026827Y-53118424D01*
X105987649Y-53122283D01*
X105909295Y-53130000D01*
X105830705Y-53130000D01*
X105752351Y-53122283D01*
X105713173Y-53118424D01*
X105611893Y-53087701D01*
X105562371Y-53072679D01*
X105423392Y-52998392D01*
X105301578Y-52898422D01*
X105201608Y-52776608D01*
X105127321Y-52637629D01*
X105081576Y-52486826D01*
X105066130Y-52330000D01*
X105081576Y-52173174D01*
X105127321Y-52022371D01*
X105201608Y-51883392D01*
X105301578Y-51761578D01*
X105423392Y-51661608D01*
X105562371Y-51587321D01*
X105637772Y-51564449D01*
X105713173Y-51541576D01*
X105752351Y-51537717D01*
X105830705Y-51530000D01*
X105909295Y-51530000D01*
X105987649Y-51537717D01*
X105987649Y-51537717D01*
G37*
G36*
X98367649Y-51537717D02*
X98406827Y-51541576D01*
X98482228Y-51564449D01*
X98557629Y-51587321D01*
X98696608Y-51661608D01*
X98818422Y-51761578D01*
X98918392Y-51883392D01*
X98992679Y-52022371D01*
X99038424Y-52173174D01*
X99053870Y-52330000D01*
X99038424Y-52486826D01*
X98992679Y-52637629D01*
X98918392Y-52776608D01*
X98818422Y-52898422D01*
X98696608Y-52998392D01*
X98557629Y-53072679D01*
X98508107Y-53087701D01*
X98406827Y-53118424D01*
X98367649Y-53122283D01*
X98289295Y-53130000D01*
X98210705Y-53130000D01*
X98132351Y-53122283D01*
X98093173Y-53118424D01*
X97991893Y-53087701D01*
X97942371Y-53072679D01*
X97803392Y-52998392D01*
X97681578Y-52898422D01*
X97581608Y-52776608D01*
X97507321Y-52637629D01*
X97461576Y-52486826D01*
X97446130Y-52330000D01*
X97461576Y-52173174D01*
X97507321Y-52022371D01*
X97581608Y-51883392D01*
X97681578Y-51761578D01*
X97803392Y-51661608D01*
X97942371Y-51587321D01*
X98017772Y-51564449D01*
X98093173Y-51541576D01*
X98132351Y-51537717D01*
X98210705Y-51530000D01*
X98289295Y-51530000D01*
X98367649Y-51537717D01*
X98367649Y-51537717D01*
G37*
G36*
X81916630Y-51412299D02*
X82076855Y-51460903D01*
X82224520Y-51539831D01*
X82353949Y-51646051D01*
X82460169Y-51775480D01*
X82539097Y-51923145D01*
X82587701Y-52083370D01*
X82604112Y-52250000D01*
X82587701Y-52416630D01*
X82539097Y-52576855D01*
X82460169Y-52724520D01*
X82353949Y-52853949D01*
X82224520Y-52960169D01*
X82076855Y-53039097D01*
X81916630Y-53087701D01*
X81791752Y-53100000D01*
X81708248Y-53100000D01*
X81583370Y-53087701D01*
X81423145Y-53039097D01*
X81275480Y-52960169D01*
X81146051Y-52853949D01*
X81039831Y-52724520D01*
X80960903Y-52576855D01*
X80912299Y-52416630D01*
X80895888Y-52250000D01*
X80912299Y-52083370D01*
X80960903Y-51923145D01*
X81039831Y-51775480D01*
X81146051Y-51646051D01*
X81275480Y-51539831D01*
X81423145Y-51460903D01*
X81583370Y-51412299D01*
X81708248Y-51400000D01*
X81791752Y-51400000D01*
X81916630Y-51412299D01*
X81916630Y-51412299D01*
G37*
G36*
X80060000Y-53100000D02*
X78360000Y-53100000D01*
X78360000Y-51400000D01*
X80060000Y-51400000D01*
X80060000Y-53100000D01*
X80060000Y-53100000D01*
G37*
G36*
X74706630Y-51412299D02*
X74866855Y-51460903D01*
X75014520Y-51539831D01*
X75143949Y-51646051D01*
X75250169Y-51775480D01*
X75329097Y-51923145D01*
X75377701Y-52083370D01*
X75394112Y-52250000D01*
X75377701Y-52416630D01*
X75329097Y-52576855D01*
X75250169Y-52724520D01*
X75143949Y-52853949D01*
X75014520Y-52960169D01*
X74866855Y-53039097D01*
X74706630Y-53087701D01*
X74581752Y-53100000D01*
X74498248Y-53100000D01*
X74373370Y-53087701D01*
X74213145Y-53039097D01*
X74065480Y-52960169D01*
X73936051Y-52853949D01*
X73829831Y-52724520D01*
X73750903Y-52576855D01*
X73702299Y-52416630D01*
X73685888Y-52250000D01*
X73702299Y-52083370D01*
X73750903Y-51923145D01*
X73829831Y-51775480D01*
X73936051Y-51646051D01*
X74065480Y-51539831D01*
X74213145Y-51460903D01*
X74373370Y-51412299D01*
X74498248Y-51400000D01*
X74581752Y-51400000D01*
X74706630Y-51412299D01*
X74706630Y-51412299D01*
G37*
G36*
X72850000Y-53100000D02*
X71150000Y-53100000D01*
X71150000Y-51400000D01*
X72850000Y-51400000D01*
X72850000Y-53100000D01*
X72850000Y-53100000D01*
G37*
G36*
X105987649Y-48997717D02*
X106026827Y-49001576D01*
X106102228Y-49024449D01*
X106177629Y-49047321D01*
X106316608Y-49121608D01*
X106438422Y-49221578D01*
X106538392Y-49343392D01*
X106612679Y-49482371D01*
X106658424Y-49633174D01*
X106673870Y-49790000D01*
X106658424Y-49946826D01*
X106612679Y-50097629D01*
X106538392Y-50236608D01*
X106438422Y-50358422D01*
X106316608Y-50458392D01*
X106177629Y-50532679D01*
X106102228Y-50555551D01*
X106026827Y-50578424D01*
X105987649Y-50582283D01*
X105909295Y-50590000D01*
X105830705Y-50590000D01*
X105752351Y-50582283D01*
X105713173Y-50578424D01*
X105637773Y-50555552D01*
X105562371Y-50532679D01*
X105423392Y-50458392D01*
X105301578Y-50358422D01*
X105201608Y-50236608D01*
X105127321Y-50097629D01*
X105081576Y-49946826D01*
X105066130Y-49790000D01*
X105081576Y-49633174D01*
X105127321Y-49482371D01*
X105201608Y-49343392D01*
X105301578Y-49221578D01*
X105423392Y-49121608D01*
X105562371Y-49047321D01*
X105637772Y-49024449D01*
X105713173Y-49001576D01*
X105752351Y-48997717D01*
X105830705Y-48990000D01*
X105909295Y-48990000D01*
X105987649Y-48997717D01*
X105987649Y-48997717D01*
G37*
G36*
X98367649Y-48997717D02*
X98406827Y-49001576D01*
X98482228Y-49024449D01*
X98557629Y-49047321D01*
X98696608Y-49121608D01*
X98818422Y-49221578D01*
X98918392Y-49343392D01*
X98992679Y-49482371D01*
X99038424Y-49633174D01*
X99053870Y-49790000D01*
X99038424Y-49946826D01*
X98992679Y-50097629D01*
X98918392Y-50236608D01*
X98818422Y-50358422D01*
X98696608Y-50458392D01*
X98557629Y-50532679D01*
X98482227Y-50555552D01*
X98406827Y-50578424D01*
X98367649Y-50582283D01*
X98289295Y-50590000D01*
X98210705Y-50590000D01*
X98132351Y-50582283D01*
X98093173Y-50578424D01*
X98017773Y-50555552D01*
X97942371Y-50532679D01*
X97803392Y-50458392D01*
X97681578Y-50358422D01*
X97581608Y-50236608D01*
X97507321Y-50097629D01*
X97461576Y-49946826D01*
X97446130Y-49790000D01*
X97461576Y-49633174D01*
X97507321Y-49482371D01*
X97581608Y-49343392D01*
X97681578Y-49221578D01*
X97803392Y-49121608D01*
X97942371Y-49047321D01*
X98017772Y-49024449D01*
X98093173Y-49001576D01*
X98132351Y-48997717D01*
X98210705Y-48990000D01*
X98289295Y-48990000D01*
X98367649Y-48997717D01*
X98367649Y-48997717D01*
G37*
G36*
X94800000Y-48800000D02*
X92200000Y-48800000D01*
X92200000Y-46200000D01*
X94800000Y-46200000D01*
X94800000Y-48800000D01*
X94800000Y-48800000D01*
G37*
G36*
X88879196Y-46249958D02*
X89115780Y-46347954D01*
X89328705Y-46490226D01*
X89509774Y-46671295D01*
X89652046Y-46884220D01*
X89750042Y-47120804D01*
X89800000Y-47371960D01*
X89800000Y-47628040D01*
X89750042Y-47879196D01*
X89652046Y-48115780D01*
X89509774Y-48328705D01*
X89328705Y-48509774D01*
X89115780Y-48652046D01*
X88879196Y-48750042D01*
X88628040Y-48800000D01*
X88371960Y-48800000D01*
X88120804Y-48750042D01*
X87884220Y-48652046D01*
X87671295Y-48509774D01*
X87490226Y-48328705D01*
X87347954Y-48115780D01*
X87249958Y-47879196D01*
X87200000Y-47628040D01*
X87200000Y-47371960D01*
X87249958Y-47120804D01*
X87347954Y-46884220D01*
X87490226Y-46671295D01*
X87671295Y-46490226D01*
X87884220Y-46347954D01*
X88120804Y-46249958D01*
X88371960Y-46200000D01*
X88628040Y-46200000D01*
X88879196Y-46249958D01*
X88879196Y-46249958D01*
G37*
G36*
X105987649Y-46457717D02*
X106026827Y-46461576D01*
X106102228Y-46484449D01*
X106177629Y-46507321D01*
X106316608Y-46581608D01*
X106438422Y-46681578D01*
X106538392Y-46803392D01*
X106612679Y-46942371D01*
X106658424Y-47093174D01*
X106673870Y-47250000D01*
X106658424Y-47406826D01*
X106612679Y-47557629D01*
X106538392Y-47696608D01*
X106438422Y-47818422D01*
X106316608Y-47918392D01*
X106177629Y-47992679D01*
X106102228Y-48015551D01*
X106026827Y-48038424D01*
X105987649Y-48042283D01*
X105909295Y-48050000D01*
X105830705Y-48050000D01*
X105752351Y-48042283D01*
X105713173Y-48038424D01*
X105637772Y-48015551D01*
X105562371Y-47992679D01*
X105423392Y-47918392D01*
X105301578Y-47818422D01*
X105201608Y-47696608D01*
X105127321Y-47557629D01*
X105081576Y-47406826D01*
X105066130Y-47250000D01*
X105081576Y-47093174D01*
X105127321Y-46942371D01*
X105201608Y-46803392D01*
X105301578Y-46681578D01*
X105423392Y-46581608D01*
X105562371Y-46507321D01*
X105637772Y-46484449D01*
X105713173Y-46461576D01*
X105752351Y-46457717D01*
X105830705Y-46450000D01*
X105909295Y-46450000D01*
X105987649Y-46457717D01*
X105987649Y-46457717D01*
G37*
G36*
X99050000Y-48050000D02*
X97450000Y-48050000D01*
X97450000Y-46450000D01*
X99050000Y-46450000D01*
X99050000Y-48050000D01*
X99050000Y-48050000D01*
G37*
M02*
