G04 #@! TF.GenerationSoftware,KiCad,Pcbnew,(5.0.1-3-g963ef8bb5)*
G04 #@! TF.CreationDate,2018-11-25T11:10:40+01:00*
G04 #@! TF.ProjectId,Dimmer 2.0,44696D6D657220322E302E6B69636164,rev?*
G04 #@! TF.SameCoordinates,Original*
G04 #@! TF.FileFunction,Copper,L1,Top,Signal*
G04 #@! TF.FilePolarity,Positive*
%FSLAX46Y46*%
G04 Gerber Fmt 4.6, Leading zero omitted, Abs format (unit mm)*
G04 Created by KiCad (PCBNEW (5.0.1-3-g963ef8bb5)) date zondag 25 november 2018 om 11:10:40*
%MOMM*%
%LPD*%
G01*
G04 APERTURE LIST*
G04 #@! TA.AperFunction,ComponentPad*
%ADD10O,1.700000X1.700000*%
G04 #@! TD*
G04 #@! TA.AperFunction,ComponentPad*
%ADD11R,1.700000X1.700000*%
G04 #@! TD*
G04 #@! TA.AperFunction,Conductor*
%ADD12C,0.100000*%
G04 #@! TD*
G04 #@! TA.AperFunction,SMDPad,CuDef*
%ADD13C,1.425000*%
G04 #@! TD*
G04 #@! TA.AperFunction,ComponentPad*
%ADD14C,2.400000*%
G04 #@! TD*
G04 #@! TA.AperFunction,ComponentPad*
%ADD15O,2.400000X2.400000*%
G04 #@! TD*
G04 #@! TA.AperFunction,ComponentPad*
%ADD16R,1.600000X1.600000*%
G04 #@! TD*
G04 #@! TA.AperFunction,ComponentPad*
%ADD17O,1.600000X1.600000*%
G04 #@! TD*
G04 #@! TA.AperFunction,ComponentPad*
%ADD18C,2.600000*%
G04 #@! TD*
G04 #@! TA.AperFunction,ComponentPad*
%ADD19R,2.600000X2.600000*%
G04 #@! TD*
G04 #@! TA.AperFunction,SMDPad,CuDef*
%ADD20R,1.000000X2.500000*%
G04 #@! TD*
G04 #@! TA.AperFunction,SMDPad,CuDef*
%ADD21R,1.800000X1.000000*%
G04 #@! TD*
G04 #@! TA.AperFunction,ComponentPad*
%ADD22O,1.500000X1.050000*%
G04 #@! TD*
G04 #@! TA.AperFunction,ComponentPad*
%ADD23R,1.500000X1.050000*%
G04 #@! TD*
G04 #@! TA.AperFunction,ComponentPad*
%ADD24C,2.200000*%
G04 #@! TD*
G04 #@! TA.AperFunction,ComponentPad*
%ADD25R,2.000000X1.905000*%
G04 #@! TD*
G04 #@! TA.AperFunction,ComponentPad*
%ADD26O,2.000000X1.905000*%
G04 #@! TD*
G04 #@! TA.AperFunction,ComponentPad*
%ADD27O,2.300000X1.600000*%
G04 #@! TD*
G04 #@! TA.AperFunction,ComponentPad*
%ADD28C,1.800000*%
G04 #@! TD*
G04 #@! TA.AperFunction,ComponentPad*
%ADD29C,3.000000*%
G04 #@! TD*
G04 #@! TA.AperFunction,ViaPad*
%ADD30C,0.800000*%
G04 #@! TD*
G04 #@! TA.AperFunction,Conductor*
%ADD31C,0.250000*%
G04 #@! TD*
G04 #@! TA.AperFunction,Conductor*
%ADD32C,1.000000*%
G04 #@! TD*
G04 #@! TA.AperFunction,Conductor*
%ADD33C,0.350000*%
G04 #@! TD*
G04 APERTURE END LIST*
D10*
G04 #@! TO.P,JPFlash1,2*
G04 #@! TO.N,GND*
X81750000Y-52250000D03*
D11*
G04 #@! TO.P,JPFlash1,1*
G04 #@! TO.N,Net-(IC1-Pad18)*
X79210000Y-52250000D03*
G04 #@! TD*
D12*
G04 #@! TO.N,+3V3*
G04 #@! TO.C,R1*
G36*
X102487004Y-73876204D02*
X102511273Y-73879804D01*
X102535071Y-73885765D01*
X102558171Y-73894030D01*
X102580349Y-73904520D01*
X102601393Y-73917133D01*
X102621098Y-73931747D01*
X102639277Y-73948223D01*
X102655753Y-73966402D01*
X102670367Y-73986107D01*
X102682980Y-74007151D01*
X102693470Y-74029329D01*
X102701735Y-74052429D01*
X102707696Y-74076227D01*
X102711296Y-74100496D01*
X102712500Y-74125000D01*
X102712500Y-75375000D01*
X102711296Y-75399504D01*
X102707696Y-75423773D01*
X102701735Y-75447571D01*
X102693470Y-75470671D01*
X102682980Y-75492849D01*
X102670367Y-75513893D01*
X102655753Y-75533598D01*
X102639277Y-75551777D01*
X102621098Y-75568253D01*
X102601393Y-75582867D01*
X102580349Y-75595480D01*
X102558171Y-75605970D01*
X102535071Y-75614235D01*
X102511273Y-75620196D01*
X102487004Y-75623796D01*
X102462500Y-75625000D01*
X101537500Y-75625000D01*
X101512996Y-75623796D01*
X101488727Y-75620196D01*
X101464929Y-75614235D01*
X101441829Y-75605970D01*
X101419651Y-75595480D01*
X101398607Y-75582867D01*
X101378902Y-75568253D01*
X101360723Y-75551777D01*
X101344247Y-75533598D01*
X101329633Y-75513893D01*
X101317020Y-75492849D01*
X101306530Y-75470671D01*
X101298265Y-75447571D01*
X101292304Y-75423773D01*
X101288704Y-75399504D01*
X101287500Y-75375000D01*
X101287500Y-74125000D01*
X101288704Y-74100496D01*
X101292304Y-74076227D01*
X101298265Y-74052429D01*
X101306530Y-74029329D01*
X101317020Y-74007151D01*
X101329633Y-73986107D01*
X101344247Y-73966402D01*
X101360723Y-73948223D01*
X101378902Y-73931747D01*
X101398607Y-73917133D01*
X101419651Y-73904520D01*
X101441829Y-73894030D01*
X101464929Y-73885765D01*
X101488727Y-73879804D01*
X101512996Y-73876204D01*
X101537500Y-73875000D01*
X102462500Y-73875000D01*
X102487004Y-73876204D01*
X102487004Y-73876204D01*
G37*
D13*
G04 #@! TD*
G04 #@! TO.P,R1,1*
G04 #@! TO.N,+3V3*
X102000000Y-74750000D03*
D12*
G04 #@! TO.N,Net-(IC1-Pad3)*
G04 #@! TO.C,R1*
G36*
X99512004Y-73876204D02*
X99536273Y-73879804D01*
X99560071Y-73885765D01*
X99583171Y-73894030D01*
X99605349Y-73904520D01*
X99626393Y-73917133D01*
X99646098Y-73931747D01*
X99664277Y-73948223D01*
X99680753Y-73966402D01*
X99695367Y-73986107D01*
X99707980Y-74007151D01*
X99718470Y-74029329D01*
X99726735Y-74052429D01*
X99732696Y-74076227D01*
X99736296Y-74100496D01*
X99737500Y-74125000D01*
X99737500Y-75375000D01*
X99736296Y-75399504D01*
X99732696Y-75423773D01*
X99726735Y-75447571D01*
X99718470Y-75470671D01*
X99707980Y-75492849D01*
X99695367Y-75513893D01*
X99680753Y-75533598D01*
X99664277Y-75551777D01*
X99646098Y-75568253D01*
X99626393Y-75582867D01*
X99605349Y-75595480D01*
X99583171Y-75605970D01*
X99560071Y-75614235D01*
X99536273Y-75620196D01*
X99512004Y-75623796D01*
X99487500Y-75625000D01*
X98562500Y-75625000D01*
X98537996Y-75623796D01*
X98513727Y-75620196D01*
X98489929Y-75614235D01*
X98466829Y-75605970D01*
X98444651Y-75595480D01*
X98423607Y-75582867D01*
X98403902Y-75568253D01*
X98385723Y-75551777D01*
X98369247Y-75533598D01*
X98354633Y-75513893D01*
X98342020Y-75492849D01*
X98331530Y-75470671D01*
X98323265Y-75447571D01*
X98317304Y-75423773D01*
X98313704Y-75399504D01*
X98312500Y-75375000D01*
X98312500Y-74125000D01*
X98313704Y-74100496D01*
X98317304Y-74076227D01*
X98323265Y-74052429D01*
X98331530Y-74029329D01*
X98342020Y-74007151D01*
X98354633Y-73986107D01*
X98369247Y-73966402D01*
X98385723Y-73948223D01*
X98403902Y-73931747D01*
X98423607Y-73917133D01*
X98444651Y-73904520D01*
X98466829Y-73894030D01*
X98489929Y-73885765D01*
X98513727Y-73879804D01*
X98537996Y-73876204D01*
X98562500Y-73875000D01*
X99487500Y-73875000D01*
X99512004Y-73876204D01*
X99512004Y-73876204D01*
G37*
D13*
G04 #@! TD*
G04 #@! TO.P,R1,2*
G04 #@! TO.N,Net-(IC1-Pad3)*
X99025000Y-74750000D03*
D12*
G04 #@! TO.N,Net-(IC1-Pad1)*
G04 #@! TO.C,R2*
G36*
X99512004Y-70126204D02*
X99536273Y-70129804D01*
X99560071Y-70135765D01*
X99583171Y-70144030D01*
X99605349Y-70154520D01*
X99626393Y-70167133D01*
X99646098Y-70181747D01*
X99664277Y-70198223D01*
X99680753Y-70216402D01*
X99695367Y-70236107D01*
X99707980Y-70257151D01*
X99718470Y-70279329D01*
X99726735Y-70302429D01*
X99732696Y-70326227D01*
X99736296Y-70350496D01*
X99737500Y-70375000D01*
X99737500Y-71625000D01*
X99736296Y-71649504D01*
X99732696Y-71673773D01*
X99726735Y-71697571D01*
X99718470Y-71720671D01*
X99707980Y-71742849D01*
X99695367Y-71763893D01*
X99680753Y-71783598D01*
X99664277Y-71801777D01*
X99646098Y-71818253D01*
X99626393Y-71832867D01*
X99605349Y-71845480D01*
X99583171Y-71855970D01*
X99560071Y-71864235D01*
X99536273Y-71870196D01*
X99512004Y-71873796D01*
X99487500Y-71875000D01*
X98562500Y-71875000D01*
X98537996Y-71873796D01*
X98513727Y-71870196D01*
X98489929Y-71864235D01*
X98466829Y-71855970D01*
X98444651Y-71845480D01*
X98423607Y-71832867D01*
X98403902Y-71818253D01*
X98385723Y-71801777D01*
X98369247Y-71783598D01*
X98354633Y-71763893D01*
X98342020Y-71742849D01*
X98331530Y-71720671D01*
X98323265Y-71697571D01*
X98317304Y-71673773D01*
X98313704Y-71649504D01*
X98312500Y-71625000D01*
X98312500Y-70375000D01*
X98313704Y-70350496D01*
X98317304Y-70326227D01*
X98323265Y-70302429D01*
X98331530Y-70279329D01*
X98342020Y-70257151D01*
X98354633Y-70236107D01*
X98369247Y-70216402D01*
X98385723Y-70198223D01*
X98403902Y-70181747D01*
X98423607Y-70167133D01*
X98444651Y-70154520D01*
X98466829Y-70144030D01*
X98489929Y-70135765D01*
X98513727Y-70129804D01*
X98537996Y-70126204D01*
X98562500Y-70125000D01*
X99487500Y-70125000D01*
X99512004Y-70126204D01*
X99512004Y-70126204D01*
G37*
D13*
G04 #@! TD*
G04 #@! TO.P,R2,2*
G04 #@! TO.N,Net-(IC1-Pad1)*
X99025000Y-71000000D03*
D12*
G04 #@! TO.N,+3V3*
G04 #@! TO.C,R2*
G36*
X102487004Y-70126204D02*
X102511273Y-70129804D01*
X102535071Y-70135765D01*
X102558171Y-70144030D01*
X102580349Y-70154520D01*
X102601393Y-70167133D01*
X102621098Y-70181747D01*
X102639277Y-70198223D01*
X102655753Y-70216402D01*
X102670367Y-70236107D01*
X102682980Y-70257151D01*
X102693470Y-70279329D01*
X102701735Y-70302429D01*
X102707696Y-70326227D01*
X102711296Y-70350496D01*
X102712500Y-70375000D01*
X102712500Y-71625000D01*
X102711296Y-71649504D01*
X102707696Y-71673773D01*
X102701735Y-71697571D01*
X102693470Y-71720671D01*
X102682980Y-71742849D01*
X102670367Y-71763893D01*
X102655753Y-71783598D01*
X102639277Y-71801777D01*
X102621098Y-71818253D01*
X102601393Y-71832867D01*
X102580349Y-71845480D01*
X102558171Y-71855970D01*
X102535071Y-71864235D01*
X102511273Y-71870196D01*
X102487004Y-71873796D01*
X102462500Y-71875000D01*
X101537500Y-71875000D01*
X101512996Y-71873796D01*
X101488727Y-71870196D01*
X101464929Y-71864235D01*
X101441829Y-71855970D01*
X101419651Y-71845480D01*
X101398607Y-71832867D01*
X101378902Y-71818253D01*
X101360723Y-71801777D01*
X101344247Y-71783598D01*
X101329633Y-71763893D01*
X101317020Y-71742849D01*
X101306530Y-71720671D01*
X101298265Y-71697571D01*
X101292304Y-71673773D01*
X101288704Y-71649504D01*
X101287500Y-71625000D01*
X101287500Y-70375000D01*
X101288704Y-70350496D01*
X101292304Y-70326227D01*
X101298265Y-70302429D01*
X101306530Y-70279329D01*
X101317020Y-70257151D01*
X101329633Y-70236107D01*
X101344247Y-70216402D01*
X101360723Y-70198223D01*
X101378902Y-70181747D01*
X101398607Y-70167133D01*
X101419651Y-70154520D01*
X101441829Y-70144030D01*
X101464929Y-70135765D01*
X101488727Y-70129804D01*
X101512996Y-70126204D01*
X101537500Y-70125000D01*
X102462500Y-70125000D01*
X102487004Y-70126204D01*
X102487004Y-70126204D01*
G37*
D13*
G04 #@! TD*
G04 #@! TO.P,R2,1*
G04 #@! TO.N,+3V3*
X102000000Y-71000000D03*
D12*
G04 #@! TO.N,Net-(IC1-Pad16)*
G04 #@! TO.C,R5*
G36*
X99512004Y-58876204D02*
X99536273Y-58879804D01*
X99560071Y-58885765D01*
X99583171Y-58894030D01*
X99605349Y-58904520D01*
X99626393Y-58917133D01*
X99646098Y-58931747D01*
X99664277Y-58948223D01*
X99680753Y-58966402D01*
X99695367Y-58986107D01*
X99707980Y-59007151D01*
X99718470Y-59029329D01*
X99726735Y-59052429D01*
X99732696Y-59076227D01*
X99736296Y-59100496D01*
X99737500Y-59125000D01*
X99737500Y-60375000D01*
X99736296Y-60399504D01*
X99732696Y-60423773D01*
X99726735Y-60447571D01*
X99718470Y-60470671D01*
X99707980Y-60492849D01*
X99695367Y-60513893D01*
X99680753Y-60533598D01*
X99664277Y-60551777D01*
X99646098Y-60568253D01*
X99626393Y-60582867D01*
X99605349Y-60595480D01*
X99583171Y-60605970D01*
X99560071Y-60614235D01*
X99536273Y-60620196D01*
X99512004Y-60623796D01*
X99487500Y-60625000D01*
X98562500Y-60625000D01*
X98537996Y-60623796D01*
X98513727Y-60620196D01*
X98489929Y-60614235D01*
X98466829Y-60605970D01*
X98444651Y-60595480D01*
X98423607Y-60582867D01*
X98403902Y-60568253D01*
X98385723Y-60551777D01*
X98369247Y-60533598D01*
X98354633Y-60513893D01*
X98342020Y-60492849D01*
X98331530Y-60470671D01*
X98323265Y-60447571D01*
X98317304Y-60423773D01*
X98313704Y-60399504D01*
X98312500Y-60375000D01*
X98312500Y-59125000D01*
X98313704Y-59100496D01*
X98317304Y-59076227D01*
X98323265Y-59052429D01*
X98331530Y-59029329D01*
X98342020Y-59007151D01*
X98354633Y-58986107D01*
X98369247Y-58966402D01*
X98385723Y-58948223D01*
X98403902Y-58931747D01*
X98423607Y-58917133D01*
X98444651Y-58904520D01*
X98466829Y-58894030D01*
X98489929Y-58885765D01*
X98513727Y-58879804D01*
X98537996Y-58876204D01*
X98562500Y-58875000D01*
X99487500Y-58875000D01*
X99512004Y-58876204D01*
X99512004Y-58876204D01*
G37*
D13*
G04 #@! TD*
G04 #@! TO.P,R5,1*
G04 #@! TO.N,Net-(IC1-Pad16)*
X99025000Y-59750000D03*
D12*
G04 #@! TO.N,GND*
G04 #@! TO.C,R5*
G36*
X102487004Y-58876204D02*
X102511273Y-58879804D01*
X102535071Y-58885765D01*
X102558171Y-58894030D01*
X102580349Y-58904520D01*
X102601393Y-58917133D01*
X102621098Y-58931747D01*
X102639277Y-58948223D01*
X102655753Y-58966402D01*
X102670367Y-58986107D01*
X102682980Y-59007151D01*
X102693470Y-59029329D01*
X102701735Y-59052429D01*
X102707696Y-59076227D01*
X102711296Y-59100496D01*
X102712500Y-59125000D01*
X102712500Y-60375000D01*
X102711296Y-60399504D01*
X102707696Y-60423773D01*
X102701735Y-60447571D01*
X102693470Y-60470671D01*
X102682980Y-60492849D01*
X102670367Y-60513893D01*
X102655753Y-60533598D01*
X102639277Y-60551777D01*
X102621098Y-60568253D01*
X102601393Y-60582867D01*
X102580349Y-60595480D01*
X102558171Y-60605970D01*
X102535071Y-60614235D01*
X102511273Y-60620196D01*
X102487004Y-60623796D01*
X102462500Y-60625000D01*
X101537500Y-60625000D01*
X101512996Y-60623796D01*
X101488727Y-60620196D01*
X101464929Y-60614235D01*
X101441829Y-60605970D01*
X101419651Y-60595480D01*
X101398607Y-60582867D01*
X101378902Y-60568253D01*
X101360723Y-60551777D01*
X101344247Y-60533598D01*
X101329633Y-60513893D01*
X101317020Y-60492849D01*
X101306530Y-60470671D01*
X101298265Y-60447571D01*
X101292304Y-60423773D01*
X101288704Y-60399504D01*
X101287500Y-60375000D01*
X101287500Y-59125000D01*
X101288704Y-59100496D01*
X101292304Y-59076227D01*
X101298265Y-59052429D01*
X101306530Y-59029329D01*
X101317020Y-59007151D01*
X101329633Y-58986107D01*
X101344247Y-58966402D01*
X101360723Y-58948223D01*
X101378902Y-58931747D01*
X101398607Y-58917133D01*
X101419651Y-58904520D01*
X101441829Y-58894030D01*
X101464929Y-58885765D01*
X101488727Y-58879804D01*
X101512996Y-58876204D01*
X101537500Y-58875000D01*
X102462500Y-58875000D01*
X102487004Y-58876204D01*
X102487004Y-58876204D01*
G37*
D13*
G04 #@! TD*
G04 #@! TO.P,R5,2*
G04 #@! TO.N,GND*
X102000000Y-59750000D03*
D14*
G04 #@! TO.P,R6,1*
G04 #@! TO.N,HT*
X82500000Y-115250000D03*
D15*
G04 #@! TO.P,R6,2*
G04 #@! TO.N,Net-(IC4-Pad6)*
X87580000Y-115250000D03*
G04 #@! TD*
D12*
G04 #@! TO.N,Net-(IC2-Pad7)*
G04 #@! TO.C,R8*
G36*
X99512004Y-62626204D02*
X99536273Y-62629804D01*
X99560071Y-62635765D01*
X99583171Y-62644030D01*
X99605349Y-62654520D01*
X99626393Y-62667133D01*
X99646098Y-62681747D01*
X99664277Y-62698223D01*
X99680753Y-62716402D01*
X99695367Y-62736107D01*
X99707980Y-62757151D01*
X99718470Y-62779329D01*
X99726735Y-62802429D01*
X99732696Y-62826227D01*
X99736296Y-62850496D01*
X99737500Y-62875000D01*
X99737500Y-64125000D01*
X99736296Y-64149504D01*
X99732696Y-64173773D01*
X99726735Y-64197571D01*
X99718470Y-64220671D01*
X99707980Y-64242849D01*
X99695367Y-64263893D01*
X99680753Y-64283598D01*
X99664277Y-64301777D01*
X99646098Y-64318253D01*
X99626393Y-64332867D01*
X99605349Y-64345480D01*
X99583171Y-64355970D01*
X99560071Y-64364235D01*
X99536273Y-64370196D01*
X99512004Y-64373796D01*
X99487500Y-64375000D01*
X98562500Y-64375000D01*
X98537996Y-64373796D01*
X98513727Y-64370196D01*
X98489929Y-64364235D01*
X98466829Y-64355970D01*
X98444651Y-64345480D01*
X98423607Y-64332867D01*
X98403902Y-64318253D01*
X98385723Y-64301777D01*
X98369247Y-64283598D01*
X98354633Y-64263893D01*
X98342020Y-64242849D01*
X98331530Y-64220671D01*
X98323265Y-64197571D01*
X98317304Y-64173773D01*
X98313704Y-64149504D01*
X98312500Y-64125000D01*
X98312500Y-62875000D01*
X98313704Y-62850496D01*
X98317304Y-62826227D01*
X98323265Y-62802429D01*
X98331530Y-62779329D01*
X98342020Y-62757151D01*
X98354633Y-62736107D01*
X98369247Y-62716402D01*
X98385723Y-62698223D01*
X98403902Y-62681747D01*
X98423607Y-62667133D01*
X98444651Y-62654520D01*
X98466829Y-62644030D01*
X98489929Y-62635765D01*
X98513727Y-62629804D01*
X98537996Y-62626204D01*
X98562500Y-62625000D01*
X99487500Y-62625000D01*
X99512004Y-62626204D01*
X99512004Y-62626204D01*
G37*
D13*
G04 #@! TD*
G04 #@! TO.P,R8,1*
G04 #@! TO.N,Net-(IC2-Pad7)*
X99025000Y-63500000D03*
D12*
G04 #@! TO.N,+3V3*
G04 #@! TO.C,R8*
G36*
X102487004Y-62626204D02*
X102511273Y-62629804D01*
X102535071Y-62635765D01*
X102558171Y-62644030D01*
X102580349Y-62654520D01*
X102601393Y-62667133D01*
X102621098Y-62681747D01*
X102639277Y-62698223D01*
X102655753Y-62716402D01*
X102670367Y-62736107D01*
X102682980Y-62757151D01*
X102693470Y-62779329D01*
X102701735Y-62802429D01*
X102707696Y-62826227D01*
X102711296Y-62850496D01*
X102712500Y-62875000D01*
X102712500Y-64125000D01*
X102711296Y-64149504D01*
X102707696Y-64173773D01*
X102701735Y-64197571D01*
X102693470Y-64220671D01*
X102682980Y-64242849D01*
X102670367Y-64263893D01*
X102655753Y-64283598D01*
X102639277Y-64301777D01*
X102621098Y-64318253D01*
X102601393Y-64332867D01*
X102580349Y-64345480D01*
X102558171Y-64355970D01*
X102535071Y-64364235D01*
X102511273Y-64370196D01*
X102487004Y-64373796D01*
X102462500Y-64375000D01*
X101537500Y-64375000D01*
X101512996Y-64373796D01*
X101488727Y-64370196D01*
X101464929Y-64364235D01*
X101441829Y-64355970D01*
X101419651Y-64345480D01*
X101398607Y-64332867D01*
X101378902Y-64318253D01*
X101360723Y-64301777D01*
X101344247Y-64283598D01*
X101329633Y-64263893D01*
X101317020Y-64242849D01*
X101306530Y-64220671D01*
X101298265Y-64197571D01*
X101292304Y-64173773D01*
X101288704Y-64149504D01*
X101287500Y-64125000D01*
X101287500Y-62875000D01*
X101288704Y-62850496D01*
X101292304Y-62826227D01*
X101298265Y-62802429D01*
X101306530Y-62779329D01*
X101317020Y-62757151D01*
X101329633Y-62736107D01*
X101344247Y-62716402D01*
X101360723Y-62698223D01*
X101378902Y-62681747D01*
X101398607Y-62667133D01*
X101419651Y-62654520D01*
X101441829Y-62644030D01*
X101464929Y-62635765D01*
X101488727Y-62629804D01*
X101512996Y-62626204D01*
X101537500Y-62625000D01*
X102462500Y-62625000D01*
X102487004Y-62626204D01*
X102487004Y-62626204D01*
G37*
D13*
G04 #@! TD*
G04 #@! TO.P,R8,2*
G04 #@! TO.N,+3V3*
X102000000Y-63500000D03*
D12*
G04 #@! TO.N,Net-(IC1-Pad18)*
G04 #@! TO.C,R3*
G36*
X99499504Y-66376204D02*
X99523773Y-66379804D01*
X99547571Y-66385765D01*
X99570671Y-66394030D01*
X99592849Y-66404520D01*
X99613893Y-66417133D01*
X99633598Y-66431747D01*
X99651777Y-66448223D01*
X99668253Y-66466402D01*
X99682867Y-66486107D01*
X99695480Y-66507151D01*
X99705970Y-66529329D01*
X99714235Y-66552429D01*
X99720196Y-66576227D01*
X99723796Y-66600496D01*
X99725000Y-66625000D01*
X99725000Y-67875000D01*
X99723796Y-67899504D01*
X99720196Y-67923773D01*
X99714235Y-67947571D01*
X99705970Y-67970671D01*
X99695480Y-67992849D01*
X99682867Y-68013893D01*
X99668253Y-68033598D01*
X99651777Y-68051777D01*
X99633598Y-68068253D01*
X99613893Y-68082867D01*
X99592849Y-68095480D01*
X99570671Y-68105970D01*
X99547571Y-68114235D01*
X99523773Y-68120196D01*
X99499504Y-68123796D01*
X99475000Y-68125000D01*
X98550000Y-68125000D01*
X98525496Y-68123796D01*
X98501227Y-68120196D01*
X98477429Y-68114235D01*
X98454329Y-68105970D01*
X98432151Y-68095480D01*
X98411107Y-68082867D01*
X98391402Y-68068253D01*
X98373223Y-68051777D01*
X98356747Y-68033598D01*
X98342133Y-68013893D01*
X98329520Y-67992849D01*
X98319030Y-67970671D01*
X98310765Y-67947571D01*
X98304804Y-67923773D01*
X98301204Y-67899504D01*
X98300000Y-67875000D01*
X98300000Y-66625000D01*
X98301204Y-66600496D01*
X98304804Y-66576227D01*
X98310765Y-66552429D01*
X98319030Y-66529329D01*
X98329520Y-66507151D01*
X98342133Y-66486107D01*
X98356747Y-66466402D01*
X98373223Y-66448223D01*
X98391402Y-66431747D01*
X98411107Y-66417133D01*
X98432151Y-66404520D01*
X98454329Y-66394030D01*
X98477429Y-66385765D01*
X98501227Y-66379804D01*
X98525496Y-66376204D01*
X98550000Y-66375000D01*
X99475000Y-66375000D01*
X99499504Y-66376204D01*
X99499504Y-66376204D01*
G37*
D13*
G04 #@! TD*
G04 #@! TO.P,R3,2*
G04 #@! TO.N,Net-(IC1-Pad18)*
X99012500Y-67250000D03*
D12*
G04 #@! TO.N,+3V3*
G04 #@! TO.C,R3*
G36*
X102474504Y-66376204D02*
X102498773Y-66379804D01*
X102522571Y-66385765D01*
X102545671Y-66394030D01*
X102567849Y-66404520D01*
X102588893Y-66417133D01*
X102608598Y-66431747D01*
X102626777Y-66448223D01*
X102643253Y-66466402D01*
X102657867Y-66486107D01*
X102670480Y-66507151D01*
X102680970Y-66529329D01*
X102689235Y-66552429D01*
X102695196Y-66576227D01*
X102698796Y-66600496D01*
X102700000Y-66625000D01*
X102700000Y-67875000D01*
X102698796Y-67899504D01*
X102695196Y-67923773D01*
X102689235Y-67947571D01*
X102680970Y-67970671D01*
X102670480Y-67992849D01*
X102657867Y-68013893D01*
X102643253Y-68033598D01*
X102626777Y-68051777D01*
X102608598Y-68068253D01*
X102588893Y-68082867D01*
X102567849Y-68095480D01*
X102545671Y-68105970D01*
X102522571Y-68114235D01*
X102498773Y-68120196D01*
X102474504Y-68123796D01*
X102450000Y-68125000D01*
X101525000Y-68125000D01*
X101500496Y-68123796D01*
X101476227Y-68120196D01*
X101452429Y-68114235D01*
X101429329Y-68105970D01*
X101407151Y-68095480D01*
X101386107Y-68082867D01*
X101366402Y-68068253D01*
X101348223Y-68051777D01*
X101331747Y-68033598D01*
X101317133Y-68013893D01*
X101304520Y-67992849D01*
X101294030Y-67970671D01*
X101285765Y-67947571D01*
X101279804Y-67923773D01*
X101276204Y-67899504D01*
X101275000Y-67875000D01*
X101275000Y-66625000D01*
X101276204Y-66600496D01*
X101279804Y-66576227D01*
X101285765Y-66552429D01*
X101294030Y-66529329D01*
X101304520Y-66507151D01*
X101317133Y-66486107D01*
X101331747Y-66466402D01*
X101348223Y-66448223D01*
X101366402Y-66431747D01*
X101386107Y-66417133D01*
X101407151Y-66404520D01*
X101429329Y-66394030D01*
X101452429Y-66385765D01*
X101476227Y-66379804D01*
X101500496Y-66376204D01*
X101525000Y-66375000D01*
X102450000Y-66375000D01*
X102474504Y-66376204D01*
X102474504Y-66376204D01*
G37*
D13*
G04 #@! TD*
G04 #@! TO.P,R3,1*
G04 #@! TO.N,+3V3*
X101987500Y-67250000D03*
D16*
G04 #@! TO.P,IC4,1*
G04 #@! TO.N,Net-(IC4-Pad1)*
X77750000Y-75750000D03*
D17*
G04 #@! TO.P,IC4,4*
G04 #@! TO.N,Net-(IC4-Pad4)*
X85370000Y-80830000D03*
G04 #@! TO.P,IC4,2*
G04 #@! TO.N,GND*
X77750000Y-78290000D03*
G04 #@! TO.P,IC4,5*
G04 #@! TO.N,Net-(IC4-Pad5)*
X85370000Y-78290000D03*
G04 #@! TO.P,IC4,3*
G04 #@! TO.N,Net-(IC4-Pad3)*
X77750000Y-80830000D03*
G04 #@! TO.P,IC4,6*
G04 #@! TO.N,Net-(IC4-Pad6)*
X85370000Y-75750000D03*
G04 #@! TD*
D18*
G04 #@! TO.P,Con3,2*
G04 #@! TO.N,Net-(Con3-Pad2)*
X88500000Y-47500000D03*
D19*
G04 #@! TO.P,Con3,1*
G04 #@! TO.N,NEUT*
X93500000Y-47500000D03*
G04 #@! TD*
D16*
G04 #@! TO.P,IC2,1*
G04 #@! TO.N,Net-(IC2-Pad1)*
X98250000Y-47250000D03*
D17*
G04 #@! TO.P,IC2,5*
G04 #@! TO.N,Net-(IC1-Pad5)*
X105870000Y-54870000D03*
G04 #@! TO.P,IC2,2*
G04 #@! TO.N,Net-(IC2-Pad2)*
X98250000Y-49790000D03*
G04 #@! TO.P,IC2,6*
G04 #@! TO.N,Net-(IC1-Pad6)*
X105870000Y-52330000D03*
G04 #@! TO.P,IC2,3*
G04 #@! TO.N,Net-(IC2-Pad3)*
X98250000Y-52330000D03*
G04 #@! TO.P,IC2,7*
G04 #@! TO.N,Net-(IC2-Pad7)*
X105870000Y-49790000D03*
G04 #@! TO.P,IC2,4*
G04 #@! TO.N,GND*
X98250000Y-54870000D03*
G04 #@! TO.P,IC2,8*
G04 #@! TO.N,+3V3*
X105870000Y-47250000D03*
G04 #@! TD*
D11*
G04 #@! TO.P,Reset1,1*
G04 #@! TO.N,Net-(IC1-Pad1)*
X72000000Y-52250000D03*
D10*
G04 #@! TO.P,Reset1,2*
G04 #@! TO.N,GND*
X74540000Y-52250000D03*
G04 #@! TD*
D20*
G04 #@! TO.P,IC1,1*
G04 #@! TO.N,Net-(IC1-Pad1)*
X79500000Y-72600000D03*
G04 #@! TO.P,IC1,2*
G04 #@! TO.N,Net-(IC1-Pad2)*
X81500000Y-72600000D03*
G04 #@! TO.P,IC1,3*
G04 #@! TO.N,Net-(IC1-Pad3)*
X83500000Y-72600000D03*
G04 #@! TO.P,IC1,4*
G04 #@! TO.N,Net-(IC1-Pad4)*
X85500000Y-72600000D03*
G04 #@! TO.P,IC1,5*
G04 #@! TO.N,Net-(IC1-Pad5)*
X87500000Y-72600000D03*
G04 #@! TO.P,IC1,6*
G04 #@! TO.N,Net-(IC1-Pad6)*
X89500000Y-72600000D03*
G04 #@! TO.P,IC1,7*
G04 #@! TO.N,Net-(IC1-Pad7)*
X91500000Y-72600000D03*
G04 #@! TO.P,IC1,8*
G04 #@! TO.N,+3V3*
X93500000Y-72600000D03*
D21*
G04 #@! TO.P,IC1,9*
G04 #@! TO.N,Net-(IC1-Pad9)*
X95000000Y-70000000D03*
G04 #@! TO.P,IC1,10*
G04 #@! TO.N,Net-(IC1-Pad10)*
X95000000Y-68000000D03*
G04 #@! TO.P,IC1,11*
G04 #@! TO.N,Net-(IC1-Pad11)*
X95000000Y-66000000D03*
G04 #@! TO.P,IC1,12*
G04 #@! TO.N,Net-(IC1-Pad12)*
X95000000Y-64000000D03*
G04 #@! TO.P,IC1,13*
G04 #@! TO.N,Net-(IC1-Pad13)*
X95000000Y-62000000D03*
G04 #@! TO.P,IC1,14*
G04 #@! TO.N,Net-(IC1-Pad14)*
X95000000Y-60000000D03*
D20*
G04 #@! TO.P,IC1,15*
G04 #@! TO.N,GND*
X93500000Y-57400000D03*
G04 #@! TO.P,IC1,16*
G04 #@! TO.N,Net-(IC1-Pad16)*
X91500000Y-57400000D03*
G04 #@! TO.P,IC1,17*
G04 #@! TO.N,Net-(IC1-Pad17)*
X89500000Y-57400000D03*
G04 #@! TO.P,IC1,18*
G04 #@! TO.N,Net-(IC1-Pad18)*
X87500000Y-57400000D03*
G04 #@! TO.P,IC1,19*
G04 #@! TO.N,Net-(IC1-Pad19)*
X85500000Y-57400000D03*
G04 #@! TO.P,IC1,20*
G04 #@! TO.N,Net-(IC1-Pad20)*
X83500000Y-57400000D03*
G04 #@! TO.P,IC1,21*
G04 #@! TO.N,Net-(Con1-Pad3)*
X81500000Y-57400000D03*
G04 #@! TO.P,IC1,22*
G04 #@! TO.N,Net-(Con1-Pad2)*
X79500000Y-57400000D03*
G04 #@! TD*
D22*
G04 #@! TO.P,T2,2*
G04 #@! TO.N,Net-(R11-Pad1)*
X72000000Y-91270000D03*
G04 #@! TO.P,T2,3*
G04 #@! TO.N,Net-(D1-Pad2)*
X72000000Y-92540000D03*
D23*
G04 #@! TO.P,T2,1*
G04 #@! TO.N,GND*
X72000000Y-90000000D03*
G04 #@! TD*
D19*
G04 #@! TO.P,Con2,1*
G04 #@! TO.N,NEUT*
X88500000Y-124000000D03*
D18*
G04 #@! TO.P,Con2,2*
G04 #@! TO.N,Net-(Con2-Pad2)*
X93500000Y-124000000D03*
G04 #@! TD*
D24*
G04 #@! TO.P,U1,1*
G04 #@! TO.N,LINE*
X95000000Y-109700000D03*
G04 #@! TO.P,U1,2*
G04 #@! TO.N,NEUT*
X100000000Y-109700000D03*
G04 #@! TO.P,U1,3*
G04 #@! TO.N,GND*
X89800000Y-80300000D03*
G04 #@! TO.P,U1,4*
G04 #@! TO.N,+3V3*
X105200000Y-80300000D03*
G04 #@! TD*
D25*
G04 #@! TO.P,T1,1*
G04 #@! TO.N,HT*
X73250000Y-85500000D03*
D26*
G04 #@! TO.P,T1,2*
G04 #@! TO.N,Net-(Con3-Pad2)*
X73250000Y-82960000D03*
G04 #@! TO.P,T1,3*
G04 #@! TO.N,Net-(IC4-Pad4)*
X73250000Y-80420000D03*
G04 #@! TD*
D27*
G04 #@! TO.P,K1,12*
G04 #@! TO.N,LINE*
X77630000Y-97500000D03*
G04 #@! TO.P,K1,8*
G04 #@! TO.N,Net-(D1-Pad2)*
X77630000Y-87340000D03*
G04 #@! TO.P,K1,1*
G04 #@! TO.N,N/C*
X85250000Y-97500000D03*
G04 #@! TO.P,K1,5*
G04 #@! TO.N,+3V3*
X85250000Y-87340000D03*
G04 #@! TO.P,K1,7*
G04 #@! TO.N,Net-(K1-Pad7)*
X77630000Y-84800000D03*
G04 #@! TO.P,K1,6*
G04 #@! TO.N,HT*
X85250000Y-84800000D03*
G04 #@! TD*
D28*
G04 #@! TO.P,RV1,1*
G04 #@! TO.N,LINE*
X82500000Y-109000000D03*
G04 #@! TO.P,RV1,2*
G04 #@! TO.N,NEUT*
X84550000Y-101500000D03*
G04 #@! TD*
D15*
G04 #@! TO.P,R10,2*
G04 #@! TO.N,NEUT*
X90920000Y-115000000D03*
D14*
G04 #@! TO.P,R10,1*
G04 #@! TO.N,Net-(IC3-Pad2)*
X96000000Y-115000000D03*
G04 #@! TD*
D16*
G04 #@! TO.P,D1,1*
G04 #@! TO.N,+3V3*
X96250000Y-76000000D03*
D17*
G04 #@! TO.P,D1,2*
G04 #@! TO.N,Net-(D1-Pad2)*
X88630000Y-76000000D03*
G04 #@! TD*
D29*
G04 #@! TO.P,F1,1*
G04 #@! TO.N,LINE*
X74750000Y-99750000D03*
G04 #@! TO.P,F1,2*
G04 #@! TO.N,Net-(Con2-Pad2)*
X74750000Y-122350000D03*
G04 #@! TD*
D12*
G04 #@! TO.N,Net-(IC1-Pad4)*
G04 #@! TO.C,R11*
G36*
X75987004Y-75126204D02*
X76011273Y-75129804D01*
X76035071Y-75135765D01*
X76058171Y-75144030D01*
X76080349Y-75154520D01*
X76101393Y-75167133D01*
X76121098Y-75181747D01*
X76139277Y-75198223D01*
X76155753Y-75216402D01*
X76170367Y-75236107D01*
X76182980Y-75257151D01*
X76193470Y-75279329D01*
X76201735Y-75302429D01*
X76207696Y-75326227D01*
X76211296Y-75350496D01*
X76212500Y-75375000D01*
X76212500Y-76625000D01*
X76211296Y-76649504D01*
X76207696Y-76673773D01*
X76201735Y-76697571D01*
X76193470Y-76720671D01*
X76182980Y-76742849D01*
X76170367Y-76763893D01*
X76155753Y-76783598D01*
X76139277Y-76801777D01*
X76121098Y-76818253D01*
X76101393Y-76832867D01*
X76080349Y-76845480D01*
X76058171Y-76855970D01*
X76035071Y-76864235D01*
X76011273Y-76870196D01*
X75987004Y-76873796D01*
X75962500Y-76875000D01*
X75037500Y-76875000D01*
X75012996Y-76873796D01*
X74988727Y-76870196D01*
X74964929Y-76864235D01*
X74941829Y-76855970D01*
X74919651Y-76845480D01*
X74898607Y-76832867D01*
X74878902Y-76818253D01*
X74860723Y-76801777D01*
X74844247Y-76783598D01*
X74829633Y-76763893D01*
X74817020Y-76742849D01*
X74806530Y-76720671D01*
X74798265Y-76697571D01*
X74792304Y-76673773D01*
X74788704Y-76649504D01*
X74787500Y-76625000D01*
X74787500Y-75375000D01*
X74788704Y-75350496D01*
X74792304Y-75326227D01*
X74798265Y-75302429D01*
X74806530Y-75279329D01*
X74817020Y-75257151D01*
X74829633Y-75236107D01*
X74844247Y-75216402D01*
X74860723Y-75198223D01*
X74878902Y-75181747D01*
X74898607Y-75167133D01*
X74919651Y-75154520D01*
X74941829Y-75144030D01*
X74964929Y-75135765D01*
X74988727Y-75129804D01*
X75012996Y-75126204D01*
X75037500Y-75125000D01*
X75962500Y-75125000D01*
X75987004Y-75126204D01*
X75987004Y-75126204D01*
G37*
D13*
G04 #@! TD*
G04 #@! TO.P,R11,2*
G04 #@! TO.N,Net-(IC1-Pad4)*
X75500000Y-76000000D03*
D12*
G04 #@! TO.N,Net-(R11-Pad1)*
G04 #@! TO.C,R11*
G36*
X73012004Y-75126204D02*
X73036273Y-75129804D01*
X73060071Y-75135765D01*
X73083171Y-75144030D01*
X73105349Y-75154520D01*
X73126393Y-75167133D01*
X73146098Y-75181747D01*
X73164277Y-75198223D01*
X73180753Y-75216402D01*
X73195367Y-75236107D01*
X73207980Y-75257151D01*
X73218470Y-75279329D01*
X73226735Y-75302429D01*
X73232696Y-75326227D01*
X73236296Y-75350496D01*
X73237500Y-75375000D01*
X73237500Y-76625000D01*
X73236296Y-76649504D01*
X73232696Y-76673773D01*
X73226735Y-76697571D01*
X73218470Y-76720671D01*
X73207980Y-76742849D01*
X73195367Y-76763893D01*
X73180753Y-76783598D01*
X73164277Y-76801777D01*
X73146098Y-76818253D01*
X73126393Y-76832867D01*
X73105349Y-76845480D01*
X73083171Y-76855970D01*
X73060071Y-76864235D01*
X73036273Y-76870196D01*
X73012004Y-76873796D01*
X72987500Y-76875000D01*
X72062500Y-76875000D01*
X72037996Y-76873796D01*
X72013727Y-76870196D01*
X71989929Y-76864235D01*
X71966829Y-76855970D01*
X71944651Y-76845480D01*
X71923607Y-76832867D01*
X71903902Y-76818253D01*
X71885723Y-76801777D01*
X71869247Y-76783598D01*
X71854633Y-76763893D01*
X71842020Y-76742849D01*
X71831530Y-76720671D01*
X71823265Y-76697571D01*
X71817304Y-76673773D01*
X71813704Y-76649504D01*
X71812500Y-76625000D01*
X71812500Y-75375000D01*
X71813704Y-75350496D01*
X71817304Y-75326227D01*
X71823265Y-75302429D01*
X71831530Y-75279329D01*
X71842020Y-75257151D01*
X71854633Y-75236107D01*
X71869247Y-75216402D01*
X71885723Y-75198223D01*
X71903902Y-75181747D01*
X71923607Y-75167133D01*
X71944651Y-75154520D01*
X71966829Y-75144030D01*
X71989929Y-75135765D01*
X72013727Y-75129804D01*
X72037996Y-75126204D01*
X72062500Y-75125000D01*
X72987500Y-75125000D01*
X73012004Y-75126204D01*
X73012004Y-75126204D01*
G37*
D13*
G04 #@! TD*
G04 #@! TO.P,R11,1*
G04 #@! TO.N,Net-(R11-Pad1)*
X72525000Y-76000000D03*
D14*
G04 #@! TO.P,R9,1*
G04 #@! TO.N,Net-(IC3-Pad1)*
X101000000Y-115000000D03*
D15*
G04 #@! TO.P,R9,2*
G04 #@! TO.N,HT*
X106080000Y-115000000D03*
G04 #@! TD*
D11*
G04 #@! TO.P,Con1,1*
G04 #@! TO.N,Net-(Con1-Pad1)*
X105750000Y-60750000D03*
D10*
G04 #@! TO.P,Con1,2*
G04 #@! TO.N,Net-(Con1-Pad2)*
X105750000Y-63290000D03*
G04 #@! TO.P,Con1,3*
G04 #@! TO.N,Net-(Con1-Pad3)*
X105750000Y-65830000D03*
G04 #@! TO.P,Con1,4*
G04 #@! TO.N,+3V3*
X105750000Y-68370000D03*
G04 #@! TO.P,Con1,5*
G04 #@! TO.N,Net-(Con1-Pad5)*
X105750000Y-70910000D03*
G04 #@! TO.P,Con1,6*
G04 #@! TO.N,GND*
X105750000Y-73450000D03*
G04 #@! TD*
D16*
G04 #@! TO.P,IC3,1*
G04 #@! TO.N,Net-(IC3-Pad1)*
X106000000Y-123000000D03*
D17*
G04 #@! TO.P,IC3,3*
G04 #@! TO.N,GND*
X98380000Y-120460000D03*
G04 #@! TO.P,IC3,2*
G04 #@! TO.N,Net-(IC3-Pad2)*
X106000000Y-120460000D03*
G04 #@! TO.P,IC3,4*
G04 #@! TO.N,Net-(IC2-Pad7)*
X98380000Y-123000000D03*
G04 #@! TD*
D30*
G04 #@! TO.N,Net-(Con1-Pad2)*
X86250000Y-62750000D03*
G04 #@! TO.N,Net-(Con1-Pad3)*
X85000000Y-61500000D03*
G04 #@! TO.N,+3V3*
X88500000Y-69000000D03*
G04 #@! TO.N,Net-(D1-Pad2)*
X87750000Y-82750000D03*
G04 #@! TO.N,Net-(IC1-Pad5)*
X85750000Y-69750000D03*
G04 #@! TO.N,Net-(IC1-Pad6)*
X83899990Y-69600010D03*
G04 #@! TO.N,Net-(IC1-Pad17)*
X88500000Y-60500000D03*
G04 #@! TO.N,Net-(IC2-Pad7)*
X102000000Y-78250000D03*
X100500000Y-72750000D03*
G04 #@! TO.N,Net-(IC4-Pad1)*
X83679683Y-75250907D03*
X100250000Y-53000000D03*
X94250000Y-55250000D03*
G04 #@! TO.N,Net-(R11-Pad1)*
X75750000Y-78750000D03*
G04 #@! TD*
D31*
G04 #@! TO.N,Net-(Con1-Pad2)*
X86250000Y-62750000D02*
X83250000Y-62750000D01*
X84750000Y-62750000D02*
X83250000Y-62750000D01*
X79500000Y-57400000D02*
X79500000Y-62000000D01*
X79500000Y-62000000D02*
X80250000Y-62750000D01*
X83250000Y-62750000D02*
X80250000Y-62750000D01*
G04 #@! TO.N,Net-(Con1-Pad3)*
X81500000Y-57400000D02*
X81500000Y-60750000D01*
X81500000Y-60750000D02*
X82250000Y-61500000D01*
X85000000Y-61500000D02*
X82250000Y-61500000D01*
G04 #@! TO.N,+3V3*
X105200000Y-77950000D02*
X102000000Y-74750000D01*
X105200000Y-80300000D02*
X105200000Y-77950000D01*
X102000000Y-74750000D02*
X102000000Y-63500000D01*
X103120000Y-68370000D02*
X102000000Y-67250000D01*
X105750000Y-68370000D02*
X103120000Y-68370000D01*
X97300000Y-76000000D02*
X98300000Y-77000000D01*
X96250000Y-76000000D02*
X97300000Y-76000000D01*
X99750000Y-77000000D02*
X102000000Y-74750000D01*
X98300000Y-77000000D02*
X99750000Y-77000000D01*
X93900000Y-72600000D02*
X93250000Y-72600000D01*
X107130000Y-68370000D02*
X105750000Y-68370000D01*
X107500000Y-68000000D02*
X107130000Y-68370000D01*
X107500000Y-48880000D02*
X107500000Y-68000000D01*
X105870000Y-47250000D02*
X107500000Y-48880000D01*
X93500000Y-74300000D02*
X93500000Y-72600000D01*
X95200000Y-76000000D02*
X93500000Y-74300000D01*
X96250000Y-76000000D02*
X95200000Y-76000000D01*
X88899999Y-69399999D02*
X88500000Y-69000000D01*
X90455001Y-69399999D02*
X88899999Y-69399999D01*
X92500000Y-71444998D02*
X90455001Y-69399999D01*
X93500000Y-72600000D02*
X92750000Y-72600000D01*
X92500000Y-72350000D02*
X92500000Y-71444998D01*
X92750000Y-72600000D02*
X92500000Y-72350000D01*
G04 #@! TO.N,GND*
X88244366Y-80300000D02*
X87444366Y-79500000D01*
X89800000Y-80300000D02*
X88244366Y-80300000D01*
X78960000Y-79500000D02*
X77750000Y-78290000D01*
X87444366Y-79500000D02*
X78960000Y-79500000D01*
X98250000Y-54870000D02*
X95720000Y-57400000D01*
X102000000Y-58620000D02*
X102000000Y-59750000D01*
X98250000Y-54870000D02*
X102000000Y-58620000D01*
X103250000Y-108500000D02*
X103250000Y-118750000D01*
X103250000Y-118750000D02*
X101540000Y-120460000D01*
X89750000Y-95000000D02*
X103250000Y-108500000D01*
X89800000Y-94950000D02*
X89750000Y-95000000D01*
X101540000Y-120460000D02*
X98380000Y-120460000D01*
X92600000Y-55000000D02*
X91500000Y-55000000D01*
X93500000Y-57400000D02*
X93500000Y-55900000D01*
X91500000Y-55000000D02*
X91600000Y-55000000D01*
X93500000Y-55900000D02*
X92600000Y-55000000D01*
X93500000Y-57400000D02*
X95720000Y-57400000D01*
X82599999Y-53099999D02*
X84599999Y-53099999D01*
X81750000Y-52250000D02*
X82599999Y-53099999D01*
X86500000Y-55000000D02*
X91500000Y-55000000D01*
X84599999Y-53099999D02*
X86500000Y-55000000D01*
X73000000Y-90000000D02*
X78000000Y-95000000D01*
X72000000Y-90000000D02*
X73000000Y-90000000D01*
X89550000Y-95000000D02*
X89800000Y-94750000D01*
X89500000Y-95000000D02*
X89550000Y-95000000D01*
X89800000Y-94750000D02*
X89800000Y-94950000D01*
X89800000Y-80300000D02*
X89800000Y-94750000D01*
X78000000Y-95000000D02*
X89500000Y-95000000D01*
X89500000Y-95000000D02*
X89750000Y-95000000D01*
D32*
G04 #@! TO.N,NEUT*
X83277208Y-101500000D02*
X80527208Y-104250000D01*
X84550000Y-101500000D02*
X83277208Y-101500000D01*
X72500000Y-104250000D02*
X70100010Y-101850010D01*
X80527208Y-104250000D02*
X72500000Y-104250000D01*
X70100010Y-101850010D02*
X70100010Y-50149990D01*
X70100010Y-50149990D02*
X71149990Y-49100010D01*
X74955639Y-49100010D02*
X78055649Y-46000000D01*
X71149990Y-49100010D02*
X74955639Y-49100010D01*
X78455639Y-45600010D02*
X74955639Y-49100010D01*
X86250000Y-50000000D02*
X81850010Y-45600010D01*
X93050000Y-50000000D02*
X86250000Y-50000000D01*
X93500000Y-49550000D02*
X93050000Y-50000000D01*
X81850010Y-45600010D02*
X78455639Y-45600010D01*
X93500000Y-47250000D02*
X93500000Y-49550000D01*
D31*
G04 #@! TO.N,Net-(D1-Pad2)*
X77630000Y-87340000D02*
X77980000Y-87340000D01*
X79250000Y-83750000D02*
X79250000Y-86070000D01*
X77980000Y-87340000D02*
X79250000Y-86070000D01*
X80250000Y-82750000D02*
X79250000Y-83750000D01*
X87750000Y-82750000D02*
X80250000Y-82750000D01*
G04 #@! TO.N,Net-(IC1-Pad1)*
X92750000Y-69000000D02*
X92000000Y-68250000D01*
X92750000Y-69000000D02*
X91250000Y-67500000D01*
X79500000Y-72600000D02*
X79500000Y-68750000D01*
X80750000Y-67500000D02*
X79500000Y-68750000D01*
X97025000Y-69000000D02*
X92750000Y-69000000D01*
X99025000Y-71000000D02*
X97025000Y-69000000D01*
X85000000Y-60000000D02*
X90000000Y-65000000D01*
X82500000Y-58750000D02*
X83750000Y-60000000D01*
X90000000Y-65000000D02*
X90000000Y-66250000D01*
X83750000Y-60000000D02*
X85000000Y-60000000D01*
X81750000Y-54750000D02*
X82500000Y-55500000D01*
X73400000Y-54750000D02*
X81750000Y-54750000D01*
X82500000Y-55500000D02*
X82500000Y-58750000D01*
X72000000Y-53350000D02*
X73400000Y-54750000D01*
X72000000Y-52250000D02*
X72000000Y-53350000D01*
X90750000Y-67000000D02*
X91250000Y-67500000D01*
X90000000Y-66250000D02*
X90750000Y-67000000D01*
X90750000Y-67500000D02*
X80750000Y-67500000D01*
X90750000Y-67500000D02*
X90750000Y-67250000D01*
X90750000Y-67250000D02*
X91000000Y-67500000D01*
X91000000Y-67500000D02*
X90750000Y-67500000D01*
X91250000Y-67500000D02*
X91000000Y-67500000D01*
X90750000Y-67250000D02*
X90750000Y-67000000D01*
G04 #@! TO.N,Net-(IC1-Pad3)*
X99025000Y-74750000D02*
X97000000Y-74750000D01*
X83274989Y-68475011D02*
X83750000Y-68000000D01*
X83274989Y-71624989D02*
X83274989Y-68475011D01*
X83500000Y-71850000D02*
X83274989Y-71624989D01*
X83500000Y-72600000D02*
X83500000Y-71850000D01*
X90250000Y-68000000D02*
X83750000Y-68000000D01*
X92975001Y-70725001D02*
X93975001Y-70725001D01*
X90250000Y-68000000D02*
X92975001Y-70725001D01*
X93975001Y-70725001D02*
X95000000Y-71750000D01*
X95000000Y-72750000D02*
X97000000Y-74750000D01*
X95000000Y-71750000D02*
X95000000Y-72750000D01*
G04 #@! TO.N,Net-(IC1-Pad4)*
X75500000Y-76000000D02*
X75500000Y-75000000D01*
X75775001Y-74724999D02*
X83125001Y-74724999D01*
X75500000Y-75000000D02*
X75775001Y-74724999D01*
X84350000Y-74500000D02*
X85500000Y-73350000D01*
X85500000Y-73350000D02*
X85500000Y-72600000D01*
X83350000Y-74500000D02*
X84350000Y-74500000D01*
X83125001Y-74724999D02*
X83350000Y-74500000D01*
G04 #@! TO.N,Net-(IC1-Pad5)*
X86750000Y-69750000D02*
X85750000Y-69750000D01*
X87500000Y-70500000D02*
X86750000Y-69750000D01*
X87500000Y-72600000D02*
X87500000Y-70500000D01*
G04 #@! TO.N,Net-(IC1-Pad6)*
X89500000Y-74100000D02*
X89350000Y-74250000D01*
X89500000Y-72600000D02*
X89500000Y-74100000D01*
X86994998Y-74250000D02*
X86500000Y-73755002D01*
X89350000Y-74250000D02*
X86994998Y-74250000D01*
X86500000Y-73755002D02*
X86500000Y-71000000D01*
X86500000Y-71000000D02*
X86000000Y-70500000D01*
X84799980Y-70500000D02*
X83899990Y-69600010D01*
X86000000Y-70500000D02*
X84799980Y-70500000D01*
G04 #@! TO.N,Net-(IC1-Pad16)*
X98212500Y-59750000D02*
X96962500Y-61000000D01*
X99025000Y-59750000D02*
X98212500Y-59750000D01*
X96962500Y-61000000D02*
X93250000Y-61000000D01*
X91500000Y-59250000D02*
X91500000Y-57400000D01*
X93250000Y-61000000D02*
X91500000Y-59250000D01*
G04 #@! TO.N,Net-(IC1-Pad17)*
X88500000Y-60500000D02*
X89500000Y-59500000D01*
X89500000Y-59500000D02*
X89500000Y-57400000D01*
G04 #@! TO.N,Net-(IC1-Pad18)*
X98200000Y-67250000D02*
X95950000Y-65000000D01*
X99012500Y-67250000D02*
X98200000Y-67250000D01*
X79210000Y-52250000D02*
X79210000Y-52960000D01*
X95950000Y-65000000D02*
X91500000Y-65000000D01*
X84505002Y-54250000D02*
X80110000Y-54250000D01*
X79210000Y-53350000D02*
X80110000Y-54250000D01*
X79210000Y-52250000D02*
X79210000Y-53350000D01*
X87500000Y-61000000D02*
X87500000Y-57400000D01*
X91500000Y-65000000D02*
X87500000Y-61000000D01*
X86594998Y-55744998D02*
X86000000Y-55744998D01*
X87500000Y-57400000D02*
X87500000Y-56650000D01*
X87500000Y-56650000D02*
X86594998Y-55744998D01*
X86000000Y-55744998D02*
X84505002Y-54250000D01*
G04 #@! TO.N,Net-(IC2-Pad7)*
X104750000Y-49750000D02*
X104790000Y-49790000D01*
X103750000Y-50750000D02*
X104750000Y-49750000D01*
X103750000Y-60750000D02*
X103750000Y-50750000D01*
X101000000Y-61500000D02*
X103000000Y-61500000D01*
X100125010Y-62374990D02*
X101000000Y-61500000D01*
X103000000Y-61500000D02*
X103750000Y-60750000D01*
X100125010Y-62399990D02*
X100125010Y-62374990D01*
X104790000Y-49790000D02*
X105870000Y-49790000D01*
X99025000Y-63500000D02*
X100125010Y-62399990D01*
X101720998Y-123000000D02*
X103750000Y-120970998D01*
X98380000Y-123000000D02*
X101720998Y-123000000D01*
X103750000Y-120970998D02*
X103750000Y-112250000D01*
X103750000Y-112250000D02*
X104750000Y-111250000D01*
X104750000Y-111250000D02*
X106750000Y-111250000D01*
X106750000Y-111250000D02*
X107500000Y-110500000D01*
X107500000Y-82750000D02*
X106750000Y-82000000D01*
X107500000Y-110500000D02*
X107500000Y-82750000D01*
X103750000Y-82000000D02*
X102000000Y-80250000D01*
X106750000Y-82000000D02*
X103750000Y-82000000D01*
X102000000Y-80250000D02*
X102000000Y-78250000D01*
X100500000Y-64975000D02*
X99025000Y-63500000D01*
X100500000Y-72750000D02*
X100500000Y-64975000D01*
G04 #@! TO.N,Net-(IC4-Pad1)*
X83180590Y-75750000D02*
X83679683Y-75250907D01*
X77750000Y-75750000D02*
X83180590Y-75750000D01*
X100250000Y-53000000D02*
X99500000Y-53750000D01*
X99500000Y-53750000D02*
X96750000Y-53750000D01*
X96750000Y-53750000D02*
X95250000Y-55250000D01*
X95250000Y-55250000D02*
X94250000Y-55250000D01*
G04 #@! TO.N,Net-(IC4-Pad4)*
X85370000Y-80830000D02*
X81170000Y-80830000D01*
D33*
X74600000Y-80420000D02*
X75750000Y-81570000D01*
X73250000Y-80420000D02*
X74600000Y-80420000D01*
X75750000Y-82250000D02*
X76250000Y-82750000D01*
X75750000Y-81570000D02*
X75750000Y-82250000D01*
X76250000Y-82750000D02*
X78750000Y-82750000D01*
X80670000Y-80830000D02*
X80000000Y-81500000D01*
X85370000Y-80830000D02*
X80670000Y-80830000D01*
X78750000Y-82750000D02*
X80000000Y-81500000D01*
D32*
G04 #@! TO.N,HT*
X73250000Y-87452500D02*
X76047500Y-90250000D01*
X73250000Y-85500000D02*
X73250000Y-87452500D01*
X76047500Y-90250000D02*
X80000000Y-90250000D01*
X80000000Y-90250000D02*
X81000000Y-89250000D01*
X81000000Y-89250000D02*
X81000000Y-86000000D01*
X82200000Y-84800000D02*
X85250000Y-84800000D01*
X81000000Y-86000000D02*
X82200000Y-84800000D01*
D31*
G04 #@! TO.N,Net-(R11-Pad1)*
X75275000Y-78750000D02*
X75750000Y-78750000D01*
X72525000Y-76000000D02*
X75275000Y-78750000D01*
D32*
G04 #@! TO.N,Net-(Con2-Pad2)*
X93500000Y-120500000D02*
X93500000Y-124000000D01*
X77850000Y-119250000D02*
X92250000Y-119250000D01*
X92250000Y-119250000D02*
X93500000Y-120500000D01*
X74750000Y-122350000D02*
X77850000Y-119250000D01*
G04 #@! TD*
M02*
