M48
;DRILL file {KiCad (5.0.1-3-g963ef8bb5)} date zondag 25 november 2018 om 11:10:44
;FORMAT={-:-/ absolute / inch / decimal}
FMAT,2
INCH,TZ
T1C0.0157
T2C0.0295
T3C0.0315
T4C0.0394
T5C0.0433
T6C0.0472
T7C0.0492
T8C0.0512
T9C0.0591
%
G90
G05
M72
T1
X2.9823Y-3.1004
X3.2945Y-2.9626
X3.3031Y-2.7402
X3.3465Y-2.4213
X3.376Y-2.7461
X3.3957Y-2.4705
X3.4547Y-3.2579
X3.4843Y-2.3819
X3.4843Y-2.7165
X3.7106Y-2.1752
X3.9469Y-2.0866
X3.9567Y-2.8642
X4.0157Y-3.0807
T2
X2.8346Y-3.5433
X2.8346Y-3.5933
X2.8346Y-3.6433
T3
X3.061Y-2.9823
X3.061Y-3.0823
X3.061Y-3.1823
X3.361Y-2.9823
X3.361Y-3.0823
X3.361Y-3.1823
X3.8732Y-4.7425
X3.8732Y-4.8425
X4.1732Y-4.7425
X4.1732Y-4.8425
X3.8681Y-1.8602
X3.8681Y-1.9602
X3.8681Y-2.0602
X3.8681Y-2.1602
X4.1681Y-1.8602
X4.1681Y-1.9602
X4.1681Y-2.0602
X4.1681Y-2.1602
X3.248Y-4.2913
X3.3287Y-3.9961
X3.4894Y-2.9921
X3.7894Y-2.9921
T4
X3.1185Y-2.0571
X3.2185Y-2.0571
X2.8346Y-2.0571
X2.9346Y-2.0571
X3.0563Y-3.3386
X3.0563Y-3.4386
X3.0563Y-3.8386
X3.3563Y-3.3386
X3.3563Y-3.4386
X3.3563Y-3.8386
X4.1634Y-2.3917
X4.1634Y-2.4917
X4.1634Y-2.5917
X4.1634Y-2.6917
X4.1634Y-2.7917
X4.1634Y-2.8917
T5
X2.8839Y-3.1661
X2.8839Y-3.2661
X2.8839Y-3.3661
T6
X3.5795Y-4.5276
X3.7795Y-4.5276
X3.9764Y-4.5276
X4.1764Y-4.5276
X3.248Y-4.5374
X3.448Y-4.5374
T7
X3.5354Y-3.1614
X3.7402Y-4.3189
X3.937Y-4.3189
X4.1417Y-3.1614
T8
X3.4843Y-4.8819
X3.6811Y-4.8819
X3.4843Y-1.8701
X3.6811Y-1.8701
T9
X2.9429Y-3.9272
X2.9429Y-4.8169
T0
M30
